<?xml version="1.0" encoding="us-ascii" standalone="no"?><svg xmlns="http://www.w3.org/2000/svg" xmlns:xlink="http://www.w3.org/1999/xlink" contentStyleType="text/css" height="1259px" preserveAspectRatio="none" style="width:2383px;height:1259px;background:#FFFFFF;" version="1.1" viewBox="0 0 2383 1259" width="2383px" zoomAndPan="magnify"><defs/><g><text fill="#000000" font-family="Verdana" font-size="22" font-weight="bold" lengthAdjust="spacing" textLength="445" x="964.895" y="37.1182">Documentation 4+1 - Vue Physique</text><!--cluster Kong--><g id="cluster_Kong"><polygon fill="#FFFFFF" points="21,286.8581,31,276.8581,553,276.8581,553,637.8781,543,647.8781,21,647.8781,21,286.8581" style="stroke:#000000;stroke-width:1.0;"/><line style="stroke:#000000;stroke-width:1.0;" x1="543" x2="553" y1="286.8581" y2="276.8581"/><line style="stroke:#000000;stroke-width:1.0;" x1="21" x2="543" y1="286.8581" y2="286.8581"/><line style="stroke:#000000;stroke-width:1.0;" x1="543" x2="543" y1="286.8581" y2="647.8781"/><text fill="#000000" font-family="Verdana" font-size="14" font-weight="bold" lengthAdjust="spacing" textLength="113" x="226.5" y="303.9333">Kong Gateway</text></g><!--cluster Microservices Cluster--><g id="cluster_Microservices Cluster"><polygon fill="#FFFFFF" points="585,438.8681,595,428.8681,2308,428.8681,2308,693.8781,2298,703.8781,585,703.8781,585,438.8681" style="stroke:#000000;stroke-width:1.0;"/><line style="stroke:#000000;stroke-width:1.0;" x1="2298" x2="2308" y1="438.8681" y2="428.8681"/><line style="stroke:#000000;stroke-width:1.0;" x1="585" x2="2298" y1="438.8681" y2="438.8681"/><line style="stroke:#000000;stroke-width:1.0;" x1="2298" x2="2298" y1="438.8681" y2="703.8781"/><text fill="#000000" font-family="Verdana" font-size="14" font-weight="bold" lengthAdjust="spacing" textLength="166" x="1359.5" y="455.9433">Microservices Cluster</text></g><!--cluster EcommerceNode--><g id="cluster_EcommerceNode"><polygon fill="#FFFFFF" points="617,544.8681,627,534.8681,892,534.8681,892,637.8781,882,647.8781,617,647.8781,617,544.8681" style="stroke:#000000;stroke-width:1.0;"/><line style="stroke:#000000;stroke-width:1.0;" x1="882" x2="892" y1="544.8681" y2="534.8681"/><line style="stroke:#000000;stroke-width:1.0;" x1="617" x2="882" y1="544.8681" y2="544.8681"/><line style="stroke:#000000;stroke-width:1.0;" x1="882" x2="882" y1="544.8681" y2="647.8781"/><text fill="#000000" font-family="Verdana" font-size="14" font-weight="bold" lengthAdjust="spacing" textLength="199" x="651" y="561.9433">Ecommerce Service Node</text></g><!--cluster Inventory Service Cluster--><g id="cluster_Inventory Service Cluster"><polygon fill="#FFFFFF" points="924,487.8681,934,477.8681,1713,477.8681,1713,669.8781,1703,679.8781,924,679.8781,924,487.8681" style="stroke:#000000;stroke-width:1.0;"/><line style="stroke:#000000;stroke-width:1.0;" x1="1703" x2="1713" y1="487.8681" y2="477.8681"/><line style="stroke:#000000;stroke-width:1.0;" x1="924" x2="1703" y1="487.8681" y2="487.8681"/><line style="stroke:#000000;stroke-width:1.0;" x1="1703" x2="1703" y1="487.8681" y2="679.8781"/><text fill="#000000" font-family="Verdana" font-size="14" font-weight="bold" lengthAdjust="spacing" textLength="200" x="1214.5" y="504.9433">Inventory Service Cluster</text></g><!--cluster InventoryNode1--><g id="cluster_InventoryNode1"><polygon fill="#FFFFFF" points="956,544.8681,966,534.8681,1171,534.8681,1171,637.8781,1161,647.8781,956,647.8781,956,544.8681" style="stroke:#000000;stroke-width:1.0;"/><line style="stroke:#000000;stroke-width:1.0;" x1="1161" x2="1171" y1="544.8681" y2="534.8681"/><line style="stroke:#000000;stroke-width:1.0;" x1="956" x2="1161" y1="544.8681" y2="544.8681"/><line style="stroke:#000000;stroke-width:1.0;" x1="1161" x2="1161" y1="544.8681" y2="647.8781"/><text fill="#000000" font-family="Verdana" font-size="14" font-weight="bold" lengthAdjust="spacing" textLength="139" x="990" y="561.9433">Inventory Node 1</text></g><!--cluster InventoryNode2--><g id="cluster_InventoryNode2"><polygon fill="#FFFFFF" points="1211,544.8681,1221,534.8681,1426,534.8681,1426,637.8781,1416,647.8781,1211,647.8781,1211,544.8681" style="stroke:#000000;stroke-width:1.0;"/><line style="stroke:#000000;stroke-width:1.0;" x1="1416" x2="1426" y1="544.8681" y2="534.8681"/><line style="stroke:#000000;stroke-width:1.0;" x1="1211" x2="1416" y1="544.8681" y2="544.8681"/><line style="stroke:#000000;stroke-width:1.0;" x1="1416" x2="1416" y1="544.8681" y2="647.8781"/><text fill="#000000" font-family="Verdana" font-size="14" font-weight="bold" lengthAdjust="spacing" textLength="139" x="1245" y="561.9433">Inventory Node 2</text></g><!--cluster InventoryNode3--><g id="cluster_InventoryNode3"><polygon fill="#FFFFFF" points="1466,544.8681,1476,534.8681,1681,534.8681,1681,637.8781,1671,647.8781,1466,647.8781,1466,544.8681" style="stroke:#000000;stroke-width:1.0;"/><line style="stroke:#000000;stroke-width:1.0;" x1="1671" x2="1681" y1="544.8681" y2="534.8681"/><line style="stroke:#000000;stroke-width:1.0;" x1="1466" x2="1671" y1="544.8681" y2="544.8681"/><line style="stroke:#000000;stroke-width:1.0;" x1="1671" x2="1671" y1="544.8681" y2="647.8781"/><text fill="#000000" font-family="Verdana" font-size="14" font-weight="bold" lengthAdjust="spacing" textLength="139" x="1500" y="561.9433">Inventory Node 3</text></g><!--cluster RetailNode--><g id="cluster_RetailNode"><polygon fill="#FFFFFF" points="1745,544.8681,1755,534.8681,1974,534.8681,1974,637.8781,1964,647.8781,1745,647.8781,1745,544.8681" style="stroke:#000000;stroke-width:1.0;"/><line style="stroke:#000000;stroke-width:1.0;" x1="1964" x2="1974" y1="544.8681" y2="534.8681"/><line style="stroke:#000000;stroke-width:1.0;" x1="1745" x2="1964" y1="544.8681" y2="544.8681"/><line style="stroke:#000000;stroke-width:1.0;" x1="1964" x2="1964" y1="544.8681" y2="647.8781"/><text fill="#000000" font-family="Verdana" font-size="14" font-weight="bold" lengthAdjust="spacing" textLength="153" x="1779" y="561.9433">Retail Service Node</text></g><!--cluster ReportingNode--><g id="cluster_ReportingNode"><polygon fill="#FFFFFF" points="2014,544.8681,2024,534.8681,2276,534.8681,2276,637.8781,2266,647.8781,2014,647.8781,2014,544.8681" style="stroke:#000000;stroke-width:1.0;"/><line style="stroke:#000000;stroke-width:1.0;" x1="2266" x2="2276" y1="544.8681" y2="534.8681"/><line style="stroke:#000000;stroke-width:1.0;" x1="2014" x2="2266" y1="544.8681" y2="544.8681"/><line style="stroke:#000000;stroke-width:1.0;" x1="2266" x2="2266" y1="544.8681" y2="647.8781"/><text fill="#000000" font-family="Verdana" font-size="14" font-weight="bold" lengthAdjust="spacing" textLength="186" x="2048" y="561.9433">Reporting Service Node</text></g><!--cluster Database Cluster--><g id="cluster_Database Cluster"><polygon fill="#FFFFFF" points="1446,824.8781,1456,814.8781,2266,814.8781,2266,907.8981,2256,917.8981,1446,917.8981,1446,824.8781" style="stroke:#000000;stroke-width:1.0;"/><line style="stroke:#000000;stroke-width:1.0;" x1="2256" x2="2266" y1="824.8781" y2="814.8781"/><line style="stroke:#000000;stroke-width:1.0;" x1="1446" x2="2256" y1="824.8781" y2="824.8781"/><line style="stroke:#000000;stroke-width:1.0;" x1="2256" x2="2256" y1="824.8781" y2="917.8981"/><text fill="#000000" font-family="Verdana" font-size="14" font-weight="bold" lengthAdjust="spacing" textLength="132" x="1786" y="841.9533">Database Cluster</text></g><!--cluster Monitoring & Observability--><g id="cluster_Monitoring &amp; Observability"><polygon fill="#FFFFFF" points="854,762.8781,864,752.8781,1422,752.8781,1422,1232.6181,1412,1242.6181,854,1242.6181,854,762.8781" style="stroke:#000000;stroke-width:1.0;"/><line style="stroke:#000000;stroke-width:1.0;" x1="1412" x2="1422" y1="762.8781" y2="752.8781"/><line style="stroke:#000000;stroke-width:1.0;" x1="854" x2="1412" y1="762.8781" y2="762.8781"/><line style="stroke:#000000;stroke-width:1.0;" x1="1412" x2="1412" y1="762.8781" y2="1242.6181"/><text fill="#000000" font-family="Verdana" font-size="14" font-weight="bold" lengthAdjust="spacing" textLength="212" x="1028" y="779.9533">Monitoring &amp; Observability</text></g><!--cluster PrometheusNode--><g id="cluster_PrometheusNode"><polygon fill="#FFFFFF" points="886,819.8781,896,809.8781,1117,809.8781,1117,1081.6081,1107,1091.6081,886,1091.6081,886,819.8781" style="stroke:#000000;stroke-width:1.0;"/><line style="stroke:#000000;stroke-width:1.0;" x1="1107" x2="1117" y1="819.8781" y2="809.8781"/><line style="stroke:#000000;stroke-width:1.0;" x1="886" x2="1107" y1="819.8781" y2="819.8781"/><line style="stroke:#000000;stroke-width:1.0;" x1="1107" x2="1107" y1="819.8781" y2="1091.6081"/><text fill="#000000" font-family="Verdana" font-size="14" font-weight="bold" lengthAdjust="spacing" textLength="140" x="927.5" y="836.9533">Prometheus Node</text></g><!--cluster GrafanaNode--><g id="cluster_GrafanaNode"><polygon fill="#FFFFFF" points="1157,988.5881,1167,978.5881,1390,978.5881,1390,1200.6181,1380,1210.6181,1157,1210.6181,1157,988.5881" style="stroke:#000000;stroke-width:1.0;"/><line style="stroke:#000000;stroke-width:1.0;" x1="1380" x2="1390" y1="988.5881" y2="978.5881"/><line style="stroke:#000000;stroke-width:1.0;" x1="1157" x2="1380" y1="988.5881" y2="988.5881"/><line style="stroke:#000000;stroke-width:1.0;" x1="1380" x2="1380" y1="988.5881" y2="1210.6181"/><text fill="#000000" font-family="Verdana" font-size="14" font-weight="bold" lengthAdjust="spacing" textLength="107" x="1216" y="1005.6633">Grafana Node</text></g><!--cluster Internet--><g id="cluster_Internet"><path d="M502.4609,70.88 C507.9384,62.0634 513.8624,63.3869 519.5603,70.6456 C522.5699,64.1835 529.0453,64.393 532.7932,69.824 C535.9202,61.7305 543.5418,62.085 548.0665,68.3358 C552.1494,61.5069 560.0214,59.7549 564.0669,68.3745 C568.095,59.8933 574.3933,60.1952 579.1904,67.6445 C583.3845,60.3755 588.8794,61.5404 593.5128,67.1563 C597.3328,60.9974 603.2298,59.4136 607.6198,66.5514 C612.6761,59.1984 618.6876,58.7373 623.6971,66.6008 C628.4109,60.3705 632.3425,61.7702 636.4303,67.2798 C641.6105,61.4317 648.2069,62.1603 651.3534,69.5691 C656.5711,61.5467 663.4019,61.3574 668.9216,69.2355 C672.1558,63.6086 678.4981,63.5287 681.7465,69.2194 C686.8428,61.8588 692.6985,63.5552 696.5112,70.5405 C705.6281,63.5625 715.7673,63.8125 718,77.6481 C719.7785,77.0081 720.6532,77.9523 720.5468,79.6777 C728.1,84.7954 727.2372,91.0603 719.5896,95.2432 C728.1641,98.5806 730.6609,106.8199 722.8349,113.1325 C731.2039,117.3973 731.4358,123.2997 723.8801,128.6378 C732.3394,133.8519 733.4851,142.0813 723.6375,147.0543 C729.9686,153.2868 729.9353,160.2726 720.5925,163.6248 C726.4545,174.6946 724.6336,182.4854 711,184.6681 C712.8735,184.8414 713.6001,185.7662 713.0014,187.6172 C708.1175,194.3226 702.8342,193.8435 698.9006,186.6529 C693.6589,196.1186 687.9131,195.2752 681.3467,188.0459 C678.7574,194.9308 674.1593,196.2956 668.8285,190.823 C665.8749,200.8919 657.2334,201.3625 651.6541,193.3116 C648.6118,200.6035 641.3183,201.2305 636.7513,194.9907 C633.2105,202.1663 628.4976,201.1732 624.1208,195.8345 C619.593,205.7655 613.5024,204.743 606.8839,197.9952 C602.1402,204.3403 594.9821,202.9322 591.9244,196.0837 C587.0397,201.8866 581.8891,202.7567 578.1903,194.892 C571.8479,201.1762 565.6312,200.0581 562.9771,191.1891 C558.5759,198.2401 553.653,197.871 548.3918,192.173 C542.9831,198.4734 536.1086,197.1779 533.3795,189.3297 C527.588,195.3956 522.4309,194.6549 519.8765,186.2989 C509.4785,195.9234 496.8907,192.5643 495,177.6681 C496.1537,176.9573 497.1034,177.4422 497.1841,178.8007 C489.7399,175.5173 487.9548,167.7248 494.7544,162.3391 C485.6917,160.2337 484.6149,152.7298 489.8995,146.2855 C480.5723,143.0267 479.9317,135.5177 487.4983,129.7984 C479.1055,123.4666 481.4608,116.6623 489.9572,112.7692 C480.8815,105.6527 481.9345,99.0768 492.4765,94.6948 C484.3068,82.4766 488.3213,74.2135 502,70.6481 C502.2652,70.5032 502.4066,70.6057 502.4609,70.88 " fill="#FFFFFF" style="stroke:#000000;stroke-width:1.0;"/><text fill="#000000" font-family="Verdana" font-size="14" font-weight="bold" lengthAdjust="spacing" textLength="65" x="574" y="89.7233">Internet</text></g><!--entity KongCore--><g id="elem_KongCore"><rect fill="#FFFFFF" height="40.0146" rx="2.5" ry="2.5" style="stroke:#000000;stroke-width:1.0;" width="103" x="233.5" y="325.8581"/><polygon fill="#FFFFFF" points="319.5,330.8581,319.5,344.8581,331.5,344.8581,331.5,336.8581,325.5,330.8581,319.5,330.8581" style="stroke:#000000;stroke-width:1.0;"/><line style="stroke:#000000;stroke-width:1.0;" x1="325.5" x2="325.5" y1="330.8581" y2="336.8581"/><line style="stroke:#000000;stroke-width:1.0;" x1="331.5" x2="325.5" y1="336.8581" y2="336.8581"/><text fill="#000000" font-family="Verdana" font-size="14" lengthAdjust="spacing" textLength="73" x="243.5" y="352.9333">Kong Core</text></g><!--entity LB--><g id="elem_LB"><rect fill="#FFFFFF" height="40.0146" rx="2.5" ry="2.5" style="stroke:#000000;stroke-width:1.0;" width="128" x="45" y="583.8681"/><polygon fill="#FFFFFF" points="156,588.8681,156,602.8681,168,602.8681,168,594.8681,162,588.8681,156,588.8681" style="stroke:#000000;stroke-width:1.0;"/><line style="stroke:#000000;stroke-width:1.0;" x1="162" x2="162" y1="588.8681" y2="594.8681"/><line style="stroke:#000000;stroke-width:1.0;" x1="168" x2="162" y1="594.8681" y2="594.8681"/><text fill="#000000" font-family="Verdana" font-size="14" lengthAdjust="spacing" textLength="98" x="55" y="610.9433">Load Balancer</text></g><!--entity Discovery--><g id="elem_Discovery"><rect fill="#FFFFFF" height="40.0146" rx="2.5" ry="2.5" style="stroke:#000000;stroke-width:1.0;" width="153" x="208.5" y="583.8681"/><polygon fill="#FFFFFF" points="344.5,588.8681,344.5,602.8681,356.5,602.8681,356.5,594.8681,350.5,588.8681,344.5,588.8681" style="stroke:#000000;stroke-width:1.0;"/><line style="stroke:#000000;stroke-width:1.0;" x1="350.5" x2="350.5" y1="588.8681" y2="594.8681"/><line style="stroke:#000000;stroke-width:1.0;" x1="356.5" x2="350.5" y1="594.8681" y2="594.8681"/><text fill="#000000" font-family="Verdana" font-size="14" lengthAdjust="spacing" textLength="123" x="218.5" y="610.9433">Service Discovery</text></g><!--entity RateLimit--><g id="elem_RateLimit"><rect fill="#FFFFFF" height="40.0146" rx="2.5" ry="2.5" style="stroke:#000000;stroke-width:1.0;" width="125" x="396.5" y="583.8681"/><polygon fill="#FFFFFF" points="504.5,588.8681,504.5,602.8681,516.5,602.8681,516.5,594.8681,510.5,588.8681,504.5,588.8681" style="stroke:#000000;stroke-width:1.0;"/><line style="stroke:#000000;stroke-width:1.0;" x1="510.5" x2="510.5" y1="588.8681" y2="594.8681"/><line style="stroke:#000000;stroke-width:1.0;" x1="516.5" x2="510.5" y1="594.8681" y2="594.8681"/><text fill="#000000" font-family="Verdana" font-size="14" lengthAdjust="spacing" textLength="95" x="406.5" y="610.9433">Rate Limiting</text></g><!--entity EcommerceApp--><g id="elem_EcommerceApp"><rect fill="#FFFFFF" height="40.0146" rx="2.5" ry="2.5" style="stroke:#000000;stroke-width:1.0;" width="140" x="641" y="583.8681"/><polygon fill="#FFFFFF" points="764,588.8681,764,602.8681,776,602.8681,776,594.8681,770,588.8681,764,588.8681" style="stroke:#000000;stroke-width:1.0;"/><line style="stroke:#000000;stroke-width:1.0;" x1="770" x2="770" y1="588.8681" y2="594.8681"/><line style="stroke:#000000;stroke-width:1.0;" x1="776" x2="770" y1="594.8681" y2="594.8681"/><text fill="#000000" font-family="Verdana" font-size="14" lengthAdjust="spacing" textLength="110" x="651" y="610.9433">Ecommerce API</text></g><!--entity InventoryApp1--><g id="elem_InventoryApp1"><rect fill="#FFFFFF" height="40.0146" rx="2.5" ry="2.5" style="stroke:#000000;stroke-width:1.0;" width="127" x="980.5" y="583.8681"/><polygon fill="#FFFFFF" points="1090.5,588.8681,1090.5,602.8681,1102.5,602.8681,1102.5,594.8681,1096.5,588.8681,1090.5,588.8681" style="stroke:#000000;stroke-width:1.0;"/><line style="stroke:#000000;stroke-width:1.0;" x1="1096.5" x2="1096.5" y1="588.8681" y2="594.8681"/><line style="stroke:#000000;stroke-width:1.0;" x1="1102.5" x2="1096.5" y1="594.8681" y2="594.8681"/><text fill="#000000" font-family="Verdana" font-size="14" lengthAdjust="spacing" textLength="97" x="990.5" y="610.9433">Inventory API</text></g><!--entity InventoryApp2--><g id="elem_InventoryApp2"><rect fill="#FFFFFF" height="40.0146" rx="2.5" ry="2.5" style="stroke:#000000;stroke-width:1.0;" width="127" x="1235.5" y="583.8681"/><polygon fill="#FFFFFF" points="1345.5,588.8681,1345.5,602.8681,1357.5,602.8681,1357.5,594.8681,1351.5,588.8681,1345.5,588.8681" style="stroke:#000000;stroke-width:1.0;"/><line style="stroke:#000000;stroke-width:1.0;" x1="1351.5" x2="1351.5" y1="588.8681" y2="594.8681"/><line style="stroke:#000000;stroke-width:1.0;" x1="1357.5" x2="1351.5" y1="594.8681" y2="594.8681"/><text fill="#000000" font-family="Verdana" font-size="14" lengthAdjust="spacing" textLength="97" x="1245.5" y="610.9433">Inventory API</text></g><!--entity InventoryApp3--><g id="elem_InventoryApp3"><rect fill="#FFFFFF" height="40.0146" rx="2.5" ry="2.5" style="stroke:#000000;stroke-width:1.0;" width="127" x="1490.5" y="583.8681"/><polygon fill="#FFFFFF" points="1600.5,588.8681,1600.5,602.8681,1612.5,602.8681,1612.5,594.8681,1606.5,588.8681,1600.5,588.8681" style="stroke:#000000;stroke-width:1.0;"/><line style="stroke:#000000;stroke-width:1.0;" x1="1606.5" x2="1606.5" y1="588.8681" y2="594.8681"/><line style="stroke:#000000;stroke-width:1.0;" x1="1612.5" x2="1606.5" y1="594.8681" y2="594.8681"/><text fill="#000000" font-family="Verdana" font-size="14" lengthAdjust="spacing" textLength="97" x="1500.5" y="610.9433">Inventory API</text></g><!--entity RetailApp--><g id="elem_RetailApp"><rect fill="#FFFFFF" height="40.0146" rx="2.5" ry="2.5" style="stroke:#000000;stroke-width:1.0;" width="99" x="1769.5" y="583.8681"/><polygon fill="#FFFFFF" points="1851.5,588.8681,1851.5,602.8681,1863.5,602.8681,1863.5,594.8681,1857.5,588.8681,1851.5,588.8681" style="stroke:#000000;stroke-width:1.0;"/><line style="stroke:#000000;stroke-width:1.0;" x1="1857.5" x2="1857.5" y1="588.8681" y2="594.8681"/><line style="stroke:#000000;stroke-width:1.0;" x1="1863.5" x2="1857.5" y1="594.8681" y2="594.8681"/><text fill="#000000" font-family="Verdana" font-size="14" lengthAdjust="spacing" textLength="69" x="1779.5" y="610.9433">Retail API</text></g><!--entity ReportingApp--><g id="elem_ReportingApp"><rect fill="#FFFFFF" height="40.0146" rx="2.5" ry="2.5" style="stroke:#000000;stroke-width:1.0;" width="128" x="2038" y="583.8681"/><polygon fill="#FFFFFF" points="2149,588.8681,2149,602.8681,2161,602.8681,2161,594.8681,2155,588.8681,2149,588.8681" style="stroke:#000000;stroke-width:1.0;"/><line style="stroke:#000000;stroke-width:1.0;" x1="2155" x2="2155" y1="588.8681" y2="594.8681"/><line style="stroke:#000000;stroke-width:1.0;" x1="2161" x2="2155" y1="594.8681" y2="594.8681"/><text fill="#000000" font-family="Verdana" font-size="14" lengthAdjust="spacing" textLength="98" x="2048" y="610.9433">Reporting API</text></g><!--entity InventoryMainDB--><g id="elem_InventoryMainDB"><path d="M1684,865.8781 C1684,855.8781 1771,855.8781 1771,855.8781 C1771,855.8781 1858,855.8781 1858,865.8781 L1858,891.8928 C1858,901.8928 1771,901.8928 1771,901.8928 C1771,901.8928 1684,901.8928 1684,891.8928 L1684,865.8781 " fill="#FFFFFF" style="stroke:#000000;stroke-width:1.0;"/><path d="M1684,865.8781 C1684,875.8781 1771,875.8781 1771,875.8781 C1771,875.8781 1858,875.8781 1858,865.8781 " fill="none" style="stroke:#000000;stroke-width:1.0;"/><text fill="#000000" font-family="Verdana" font-size="14" lengthAdjust="spacing" textLength="154" x="1694" y="893.9533">Inventory PostgreSQL</text></g><!--entity EcommerceMainDB--><g id="elem_EcommerceMainDB"><path d="M1461.5,865.8781 C1461.5,855.8781 1555,855.8781 1555,855.8781 C1555,855.8781 1648.5,855.8781 1648.5,865.8781 L1648.5,891.8928 C1648.5,901.8928 1555,901.8928 1555,901.8928 C1555,901.8928 1461.5,901.8928 1461.5,891.8928 L1461.5,865.8781 " fill="#FFFFFF" style="stroke:#000000;stroke-width:1.0;"/><path d="M1461.5,865.8781 C1461.5,875.8781 1555,875.8781 1555,875.8781 C1555,875.8781 1648.5,875.8781 1648.5,865.8781 " fill="none" style="stroke:#000000;stroke-width:1.0;"/><text fill="#000000" font-family="Verdana" font-size="14" lengthAdjust="spacing" textLength="167" x="1471.5" y="893.9533">Ecommerce PostgreSQL</text></g><!--entity RetailMainDB--><g id="elem_RetailMainDB"><path d="M1893,865.8781 C1893,855.8781 1966,855.8781 1966,855.8781 C1966,855.8781 2039,855.8781 2039,865.8781 L2039,891.8928 C2039,901.8928 1966,901.8928 1966,901.8928 C1966,901.8928 1893,901.8928 1893,891.8928 L1893,865.8781 " fill="#FFFFFF" style="stroke:#000000;stroke-width:1.0;"/><path d="M1893,865.8781 C1893,875.8781 1966,875.8781 1966,875.8781 C1966,875.8781 2039,875.8781 2039,865.8781 " fill="none" style="stroke:#000000;stroke-width:1.0;"/><text fill="#000000" font-family="Verdana" font-size="14" lengthAdjust="spacing" textLength="126" x="1903" y="893.9533">Retail PostgreSQL</text></g><!--entity ReportingMainDB--><g id="elem_ReportingMainDB"><path d="M2074.5,865.8781 C2074.5,855.8781 2162,855.8781 2162,855.8781 C2162,855.8781 2249.5,855.8781 2249.5,865.8781 L2249.5,891.8928 C2249.5,901.8928 2162,901.8928 2162,901.8928 C2162,901.8928 2074.5,901.8928 2074.5,891.8928 L2074.5,865.8781 " fill="#FFFFFF" style="stroke:#000000;stroke-width:1.0;"/><path d="M2074.5,865.8781 C2074.5,875.8781 2162,875.8781 2162,875.8781 C2162,875.8781 2249.5,875.8781 2249.5,865.8781 " fill="none" style="stroke:#000000;stroke-width:1.0;"/><text fill="#000000" font-family="Verdana" font-size="14" lengthAdjust="spacing" textLength="155" x="2084.5" y="893.9533">Reporting PostgreSQL</text></g><!--entity PrometheusApp--><g id="elem_PrometheusApp"><rect fill="#FFFFFF" height="40.0146" rx="2.5" ry="2.5" style="stroke:#000000;stroke-width:1.0;" width="164" x="910" y="858.8781"/><polygon fill="#FFFFFF" points="1057,863.8781,1057,877.8781,1069,877.8781,1069,869.8781,1063,863.8781,1057,863.8781" style="stroke:#000000;stroke-width:1.0;"/><line style="stroke:#000000;stroke-width:1.0;" x1="1063" x2="1063" y1="863.8781" y2="869.8781"/><line style="stroke:#000000;stroke-width:1.0;" x1="1069" x2="1063" y1="869.8781" y2="869.8781"/><text fill="#000000" font-family="Verdana" font-size="14" lengthAdjust="spacing" textLength="134" x="920" y="885.9533">Prometheus Server</text></g><!--entity MetricsStorage--><g id="elem_MetricsStorage"><rect fill="#FFFFFF" height="40.0146" rx="2.5" ry="2.5" style="stroke:#000000;stroke-width:1.0;" width="140" x="922" y="1027.5881"/><polygon fill="#FFFFFF" points="1045,1032.5881,1045,1046.5881,1057,1046.5881,1057,1038.5881,1051,1032.5881,1045,1032.5881" style="stroke:#000000;stroke-width:1.0;"/><line style="stroke:#000000;stroke-width:1.0;" x1="1051" x2="1051" y1="1032.5881" y2="1038.5881"/><line style="stroke:#000000;stroke-width:1.0;" x1="1057" x2="1051" y1="1038.5881" y2="1038.5881"/><text fill="#000000" font-family="Verdana" font-size="14" lengthAdjust="spacing" textLength="110" x="932" y="1054.6633">Metrics Storage</text></g><!--entity GrafanaApp--><g id="elem_GrafanaApp"><rect fill="#FFFFFF" height="40.0146" rx="2.5" ry="2.5" style="stroke:#000000;stroke-width:1.0;" width="165" x="1181.5" y="1027.5881"/><polygon fill="#FFFFFF" points="1329.5,1032.5881,1329.5,1046.5881,1341.5,1046.5881,1341.5,1038.5881,1335.5,1032.5881,1329.5,1032.5881" style="stroke:#000000;stroke-width:1.0;"/><line style="stroke:#000000;stroke-width:1.0;" x1="1335.5" x2="1335.5" y1="1032.5881" y2="1038.5881"/><line style="stroke:#000000;stroke-width:1.0;" x1="1341.5" x2="1335.5" y1="1038.5881" y2="1038.5881"/><text fill="#000000" font-family="Verdana" font-size="14" lengthAdjust="spacing" textLength="135" x="1191.5" y="1054.6633">Grafana Dashboard</text></g><!--entity AlertManager--><g id="elem_AlertManager"><rect fill="#FFFFFF" height="40.0146" rx="2.5" ry="2.5" style="stroke:#000000;stroke-width:1.0;" width="129" x="1199.5" y="1146.6081"/><polygon fill="#FFFFFF" points="1311.5,1151.6081,1311.5,1165.6081,1323.5,1165.6081,1323.5,1157.6081,1317.5,1151.6081,1311.5,1151.6081" style="stroke:#000000;stroke-width:1.0;"/><line style="stroke:#000000;stroke-width:1.0;" x1="1317.5" x2="1317.5" y1="1151.6081" y2="1157.6081"/><line style="stroke:#000000;stroke-width:1.0;" x1="1323.5" x2="1317.5" y1="1157.6081" y2="1157.6081"/><text fill="#000000" font-family="Verdana" font-size="14" lengthAdjust="spacing" textLength="99" x="1209.5" y="1173.6833">Alert Manager</text></g><!--entity WebClients--><g id="elem_WebClients"><ellipse cx="545" cy="107.6481" fill="#FFFFFF" rx="8" ry="8" style="stroke:#000000;stroke-width:1.0;"/><path d="M545,115.6481 L545,142.6481 M532,123.6481 L558,123.6481 M545,142.6481 L532,157.6481 M545,142.6481 L558,157.6481 " fill="none" style="stroke:#000000;stroke-width:1.0;"/><text fill="#000000" font-family="Verdana" font-size="14" lengthAdjust="spacing" textLength="84" x="503" y="173.7233">Web Clients</text></g><!--entity AdminPanel--><g id="elem_AdminPanel"><ellipse cx="666" cy="107.6481" fill="#FFFFFF" rx="8" ry="8" style="stroke:#000000;stroke-width:1.0;"/><path d="M666,115.6481 L666,142.6481 M653,123.6481 L679,123.6481 M666,142.6481 L653,157.6481 M666,142.6481 L679,157.6481 " fill="none" style="stroke:#000000;stroke-width:1.0;"/><text fill="#000000" font-family="Verdana" font-size="14" lengthAdjust="spacing" textLength="88" x="622" y="173.7233">Admin Panel</text></g><g id="elem_GMN65"><path d="M346.5,101.0581 L346.5,174.2554 L467.5,174.2554 L467.5,111.0581 L457.5,101.0581 L346.5,101.0581 " fill="#FFFFFF" style="stroke:#000000;stroke-width:1.0;"/><path d="M457.5,101.0581 L457.5,111.0581 L467.5,111.0581 L457.5,101.0581 " fill="#FFFFFF" style="stroke:#000000;stroke-width:1.0;"/><text fill="#000000" font-family="Verdana" font-size="13" lengthAdjust="spacing" textLength="100" x="352.5" y="119.1279">Load Balancing</text><text fill="#000000" font-family="Verdana" font-size="13" lengthAdjust="spacing" textLength="85" x="352.5" y="134.9272">API Gateway</text><text fill="#000000" font-family="Verdana" font-size="13" lengthAdjust="spacing" textLength="88" x="352.5" y="150.7266">Rate Limiting</text><text fill="#000000" font-family="Verdana" font-size="13" lengthAdjust="spacing" textLength="95" x="352.5" y="166.5259">Authentication</text></g><g id="elem_GMN68"><path d="M692.5,850.1881 L692.5,907.5861 L837.5,907.5861 L837.5,860.1881 L827.5,850.1881 L692.5,850.1881 " fill="#FFFFFF" style="stroke:#000000;stroke-width:1.0;"/><path d="M827.5,850.1881 L827.5,860.1881 L837.5,860.1881 L827.5,850.1881 " fill="#FFFFFF" style="stroke:#000000;stroke-width:1.0;"/><text fill="#000000" font-family="Verdana" font-size="13" lengthAdjust="spacing" textLength="124" x="698.5" y="868.2579">"Metrics Collection</text><text fill="#000000" font-family="Verdana" font-size="13" lengthAdjust="spacing" textLength="122" x="698.5" y="884.0572">Alert Management</text><text fill="#000000" font-family="Verdana" font-size="13" lengthAdjust="spacing" textLength="110" x="698.5" y="899.8566">Time Series DB"</text></g><g id="elem_DeploymentSpecs"><path d="M745,69.4581 L745,205.8526 L1179,205.8526 L1179,79.4581 L1169,69.4581 L745,69.4581 " fill="#FFFFFF" style="stroke:#000000;stroke-width:1.0;"/><path d="M1169,69.4581 L1169,79.4581 L1179,79.4581 L1169,69.4581 " fill="#FFFFFF" style="stroke:#000000;stroke-width:1.0;"/><text fill="#000000" font-family="Verdana" font-size="13" font-weight="bold" lengthAdjust="spacing" textLength="220" x="751" y="87.5279">Sp&#233;cifications de D&#233;ploiement</text><text fill="#000000" font-family="Verdana" font-size="13" lengthAdjust="spacing" textLength="6" x="751" y="103.3272">-</text><text fill="#000000" font-family="Verdana" font-size="13" font-weight="bold" lengthAdjust="spacing" textLength="106" x="762" y="103.3272">Kong Gateway</text><text fill="#000000" font-family="Verdana" font-size="13" lengthAdjust="spacing" textLength="296" x="868" y="103.3272">: 1 instance (API Gateway + Load Balancer)</text><text fill="#000000" font-family="Verdana" font-size="13" lengthAdjust="spacing" textLength="6" x="751" y="119.1266">-</text><text fill="#000000" font-family="Verdana" font-size="13" font-weight="bold" lengthAdjust="spacing" textLength="102" x="762" y="119.1266">Inventory API</text><text fill="#000000" font-family="Verdana" font-size="13" lengthAdjust="spacing" textLength="264" x="864" y="119.1266">: 3 instances (Load Balanced par Kong)</text><text fill="#000000" font-family="Verdana" font-size="13" lengthAdjust="spacing" textLength="6" x="751" y="134.9259">-</text><text fill="#000000" font-family="Verdana" font-size="13" font-weight="bold" lengthAdjust="spacing" textLength="87" x="762" y="134.9259">Autres APIs</text><text fill="#000000" font-family="Verdana" font-size="13" lengthAdjust="spacing" textLength="211" x="849" y="134.9259">: 1 instance chacune (Scalable)</text><text fill="#000000" font-family="Verdana" font-size="13" lengthAdjust="spacing" textLength="6" x="751" y="150.7252">-</text><text fill="#000000" font-family="Verdana" font-size="13" font-weight="bold" lengthAdjust="spacing" textLength="132" x="762" y="150.7252">Bases de donn&#233;es</text><text fill="#000000" font-family="Verdana" font-size="13" lengthAdjust="spacing" textLength="223" x="894" y="150.7252">: PostgreSQL d&#233;di&#233;es par service</text><text fill="#000000" font-family="Verdana" font-size="13" lengthAdjust="spacing" textLength="6" x="751" y="166.5245">-</text><text fill="#000000" font-family="Verdana" font-size="13" font-weight="bold" lengthAdjust="spacing" textLength="77" x="762" y="166.5245">Monitoring</text><text fill="#000000" font-family="Verdana" font-size="13" lengthAdjust="spacing" textLength="164" x="839" y="166.5245">: Prometheus + Grafana</text><text fill="#000000" font-family="Verdana" font-size="13" lengthAdjust="spacing" textLength="6" x="751" y="182.3238">-</text><text fill="#000000" font-family="Verdana" font-size="13" font-weight="bold" lengthAdjust="spacing" textLength="54" x="762" y="182.3238">R&#233;seau</text><text fill="#000000" font-family="Verdana" font-size="13" lengthAdjust="spacing" textLength="185" x="816" y="182.3238">: Docker Compose Network</text><text fill="#000000" font-family="Verdana" font-size="13" lengthAdjust="spacing" textLength="6" x="751" y="198.1231">-</text><text fill="#000000" font-family="Verdana" font-size="13" font-weight="bold" lengthAdjust="spacing" textLength="39" x="762" y="198.1231">Ports</text><text fill="#000000" font-family="Verdana" font-size="13" lengthAdjust="spacing" textLength="250" x="801" y="198.1231">: 8000-8003 (APIs), 5433-5450 (DBs)</text></g><!--link KongCore to LB--><g id="link_KongCore_LB"><path d="M252.98,366.3281 C233.09,379.6881 208.14,398.9381 191,420.8681 C150.33,472.8781 124.78,548.2681 114.37,583.4381 " fill="none" id="KongCore-LB" style="stroke:#000000;stroke-width:1.0;"/></g><!--link KongCore to Discovery--><g id="link_KongCore_Discovery"><path d="M285,366.1081 C285,413.5481 285,535.7281 285,583.4081 " fill="none" id="KongCore-Discovery" style="stroke:#000000;stroke-width:1.0;"/></g><!--link KongCore to RateLimit--><g id="link_KongCore_RateLimit"><path d="M317.09,366.2681 C337,379.6181 361.96,398.8681 379,420.8681 C419.26,472.8581 443.9,548.2581 453.88,583.4381 " fill="none" id="KongCore-RateLimit" style="stroke:#000000;stroke-width:1.0;"/></g><!--link PrometheusApp to MetricsStorage--><g id="link_PrometheusApp_MetricsStorage"><path d="M992,899.3381 C992,931.4581 992,995.2281 992,1027.2681 " fill="none" id="PrometheusApp-MetricsStorage" style="stroke:#000000;stroke-width:1.0;"/></g><!--link GrafanaApp to AlertManager--><g id="link_GrafanaApp_AlertManager"><path d="M1264,1067.9181 C1264,1089.5981 1264,1124.5681 1264,1146.2581 " fill="none" id="GrafanaApp-AlertManager" style="stroke:#000000;stroke-width:1.0;"/></g><!--link Kong to EcommerceNode--><g id="link_Kong_EcommerceNode"><path d="M553.0126,347.9974 C553.3544,348.0476 553.7062,348.0993 554.0678,348.1527 C554.7911,348.2594 555.5538,348.3726 556.3545,348.4922 C562.7598,349.4491 571.5948,350.817 582.1278,352.5722 C603.1937,356.0825 631.0513,361.1419 659.845,367.5606 C717.4325,380.3981 778.765,398.6731 797,420.8681 C822.41,451.7981 827.41,496.3731 825.935,533.6681 C825.9235,533.9595 826.1656,528.2558 826.1532,528.5462 " fill="none" id="Kong-to-EcommerceNode" style="stroke:#000000;stroke-width:1.0;stroke-dasharray:7.0,7.0;"/><polygon fill="#000000" points="825.8993,534.5409,830.2767,525.7183,826.1109,529.5453,822.2838,525.3796,825.8993,534.5409" style="stroke:#000000;stroke-width:1.0;"/><text fill="#000000" font-family="Verdana" font-size="13" lengthAdjust="spacing" textLength="72" x="785.89" y="409.9379">HTTP/8000</text></g><!--link EcommerceNode to Kong--><g id="link_EcommerceNode_Kong"><path d="M828.2999,534.0019 C828.3202,533.7073 828.3401,533.4123 828.3596,533.1169 C828.3986,532.526 828.4358,531.9335 828.4713,531.3394 C830.74,493.3156 825.69,448.7881 797,420.8681 C788.69,412.7881 704.23,415.7181 693,412.8681 C658.635,404.1631 622.245,388.0356 594.1488,373.9019 C580.1006,366.835 568.1259,360.2665 559.5145,355.3736 C557.3617,354.1503 555.419,353.0318 553.7067,352.0364 C553.4927,351.912 558.4659,354.811 558.2591,354.6905 " fill="none" id="EcommerceNode-to-Kong" style="stroke:#000000;stroke-width:1.0;stroke-dasharray:7.0,7.0;"/><polygon fill="#000000" points="553.0755,351.6689,558.8365,359.657,557.3952,354.1869,562.8653,352.7455,553.0755,351.6689" style="stroke:#000000;stroke-width:1.0;"/><text fill="#000000" font-family="Verdana" font-size="13" lengthAdjust="spacing" textLength="59" x="694" y="409.9379">API Calls</text></g><!--link Kong to InventoryNode1--><g id="link_Kong_InventoryNode1"><path d="M553.2896,347.3099 C553.5729,347.3255 553.8632,347.3415 554.1603,347.3579 C554.7544,347.3907 555.3758,347.4251 556.0241,347.4612 C557.3206,347.5333 558.7245,347.6118 560.2318,347.6968 C563.2465,347.8667 566.6751,348.0623 570.4873,348.2833 C585.736,349.1674 607.1211,350.4583 632.6928,352.139 C683.8363,355.5006 751.7262,360.4219 820.765,366.7681 C958.8425,379.4606 1101.515,397.8531 1124,420.8681 C1151.975,449.4981 1157.015,494.0356 1154.92,531.8869 C1154.8873,532.4783 1154.8528,533.0681 1154.8166,533.6562 C1154.7986,533.9502 1155.1663,528.2562 1155.1474,528.5494 " fill="none" id="Kong-to-InventoryNode1" style="stroke:#000000;stroke-width:1.0;stroke-dasharray:7.0,7.0;"/><polygon fill="#000000" points="1154.7611,534.537,1159.3322,525.8131,1155.083,529.5473,1151.3488,525.2981,1154.7611,534.537" style="stroke:#000000;stroke-width:1.0;"/><text fill="#000000" font-family="Verdana" font-size="13" lengthAdjust="spacing" textLength="72" x="1111.79" y="409.9379">HTTP/8001</text></g><!--link Kong to InventoryNode2--><g id="link_Kong_InventoryNode2"><path d="M553.5393,346.9538 C554.2355,346.9624 554.9724,346.9716 555.7494,346.9814 C561.9652,347.0603 570.7432,347.1811 581.732,347.3562 C603.7096,347.7065 634.5305,348.2743 671.3834,349.1592 C745.0894,350.929 842.9238,353.9675 942.3975,359.0719 C1141.345,369.2806 1346.85,387.7531 1379,420.8681 C1406.885,449.5881 1411.9225,494.1281 1409.8488,531.9581 C1409.8163,532.5492 1409.7822,533.1387 1409.7464,533.7264 C1409.7285,534.0203 1410.0931,528.3259 1410.0744,528.6189 " fill="none" id="Kong-to-InventoryNode2" style="stroke:#000000;stroke-width:1.0;stroke-dasharray:7.0,7.0;"/><polygon fill="#000000" points="1409.6914,534.6067,1414.2577,525.8803,1410.0105,529.6169,1406.274,525.3697,1409.6914,534.6067" style="stroke:#000000;stroke-width:1.0;"/><text fill="#000000" font-family="Verdana" font-size="13" lengthAdjust="spacing" textLength="72" x="1361.05" y="409.9379">HTTP/8001</text></g><!--link Kong to InventoryNode3--><g id="link_Kong_InventoryNode3"><path d="M553.7354,347.0853 C554.308,347.1008 554.9079,347.117 555.5346,347.134 C556.7881,347.168 558.1492,347.2053 559.6159,347.2458 C562.5492,347.3267 565.9043,347.4207 569.6633,347.528 C584.6994,347.9574 606.1981,348.6004 633.0125,349.4801 C686.6413,351.2397 761.5325,353.9462 848.51,357.7844 C1022.465,365.4606 1244.765,377.6631 1442,395.8681 C1447.36,396.3581 1630.25,417.0181 1634,420.8681 C1661.945,449.5331 1666.985,494.0731 1664.8975,531.9169 C1664.8649,532.5082 1664.8305,533.0978 1664.7945,533.6858 C1664.7765,533.9798 1665.1431,528.2857 1665.1243,528.5788 " fill="none" id="Kong-to-InventoryNode3" style="stroke:#000000;stroke-width:1.0;stroke-dasharray:7.0,7.0;"/><polygon fill="#000000" points="1664.7392,534.5664,1669.3086,525.8417,1665.0601,529.5767,1661.3251,525.3282,1664.7392,534.5664" style="stroke:#000000;stroke-width:1.0;"/><text fill="#000000" font-family="Verdana" font-size="13" lengthAdjust="spacing" textLength="72" x="1583.06" y="409.9379">HTTP/8001</text></g><!--link Kong to RetailNode--><g id="link_Kong_RetailNode"><path d="M553.8804,346.7136 C559.0642,346.6353 566.4481,346.5336 575.8521,346.4288 C594.6599,346.2192 621.5476,345.9972 655.0733,345.9251 C722.1247,345.7809 815.7281,346.2362 924.3488,348.5894 C1141.59,353.2956 1418.9,365.5931 1664,395.8681 C1701.37,400.4881 1709.66,407.9881 1747,412.8681 C1762.23,414.8581 1873.89,410.2581 1885,420.8681 C1913.95,448.5131 1919.005,493.0356 1916.6738,531.1256 C1916.6009,532.3159 1916.962,527.5162 1916.8752,528.6932 " fill="none" id="Kong-to-RetailNode" style="stroke:#000000;stroke-width:1.0;stroke-dasharray:7.0,7.0;"/><polygon fill="#000000" points="1916.4341,534.677,1921.0849,525.9954,1916.8017,529.6905,1913.1066,525.4073,1916.4341,534.677" style="stroke:#000000;stroke-width:1.0;"/><text fill="#000000" font-family="Verdana" font-size="13" lengthAdjust="spacing" textLength="72" x="1748" y="409.9379">HTTP/8002</text></g><!--link RetailNode to Kong--><g id="link_RetailNode_Kong"><path d="M1912.7725,534.5794 C1913.8825,497.5706 1908.905,452.9781 1885,420.8681 C1867.75,397.6981 1853.21,402.0781 1825,395.8681 C1686.54,365.4081 1368.495,353.1331 1084.0938,348.4844 C941.8931,346.16 808.1034,345.7422 709.3783,345.9111 C660.0157,345.9955 619.4193,346.2267 590.9206,346.4395 C576.6713,346.5459 565.4465,346.6478 557.6626,346.7244 C556.6896,346.734 555.7703,346.7432 554.9057,346.7519 C554.4734,346.7563 560.0544,346.699 559.6494,346.7032 " fill="none" id="RetailNode-to-Kong" style="stroke:#000000;stroke-width:1.0;stroke-dasharray:7.0,7.0;"/><polygon fill="#000000" points="553.6498,346.7647,562.6903,350.6722,558.6495,346.7134,562.6082,342.6726,553.6498,346.7647" style="stroke:#000000;stroke-width:1.0;"/><text fill="#000000" font-family="Verdana" font-size="13" lengthAdjust="spacing" textLength="59" x="1878.87" y="409.9379">API Calls</text></g><!--link Kong to ReportingNode--><g id="link_Kong_ReportingNode"><path d="M553.8051,346.7488 C554.529,346.7404 555.2963,346.7316 556.1066,346.7224 C562.589,346.6492 571.8233,346.5546 583.585,346.4584 C607.1082,346.266 640.7405,346.0672 682.6842,346.0208 C766.5716,345.9278 883.7044,346.4437 1019.7013,348.8369 C1291.695,353.6231 1639.145,365.9181 1947,395.8681 C1994.49,400.4881 2005.58,407.6081 2053,412.8681 C2067.27,414.4481 2171.63,410.9281 2182,420.8681 C2210.895,448.5731 2215.95,493.0981 2213.6325,531.1744 C2213.5601,532.3642 2213.9195,527.5639 2213.8331,528.7405 " fill="none" id="Kong-to-ReportingNode" style="stroke:#000000;stroke-width:1.0;stroke-dasharray:7.0,7.0;"/><polygon fill="#000000" points="2213.3941,534.7244,2218.0419,526.0412,2213.76,529.7378,2210.0634,525.4559,2213.3941,534.7244" style="stroke:#000000;stroke-width:1.0;"/><text fill="#000000" font-family="Verdana" font-size="13" lengthAdjust="spacing" textLength="72" x="2054" y="409.9379">HTTP/8003</text></g><!--link ReportingNode to Kong--><g id="link_ReportingNode_Kong"><path d="M2209.0231,534.2658 C2209.0292,533.9771 2209.0349,533.6879 2209.0403,533.3982 C2209.051,532.8189 2209.0602,532.2378 2209.068,531.6549 C2209.0834,530.4892 2209.0928,529.3165 2209.0958,528.1373 C2209.1018,525.7791 2209.0819,523.3952 2209.0334,520.9906 C2208.9365,516.1814 2208.7247,511.289 2208.3744,506.3516 C2207.6739,496.4768 2206.4195,486.422 2204.4217,476.4928 C2200.4263,456.6344 2193.4575,437.2781 2182,420.8681 C2167.55,400.1681 2155.5,401.9481 2131,395.8681 C2045.78,374.7131 1652.0375,362.4731 1278.2288,355.5156 C1091.3244,352.0369 909.4034,349.8787 773.523,348.5872 C705.5827,347.9414 649.1526,347.5122 609.3647,347.243 C589.4708,347.1084 573.7374,347.0137 562.8061,346.9519 C560.0733,346.9365 557.6406,346.9231 555.5181,346.9116 C554.9874,346.9088 560.4761,346.938 559.9844,346.9354 " fill="none" id="ReportingNode-to-Kong" style="stroke:#000000;stroke-width:1.0;stroke-dasharray:7.0,7.0;"/><polygon fill="#000000" points="553.9845,346.9034,562.963,350.9513,558.9844,346.9301,563.0057,342.9514,553.9845,346.9034" style="stroke:#000000;stroke-width:1.0;"/><text fill="#000000" font-family="Verdana" font-size="13" lengthAdjust="spacing" textLength="59" x="2176.19" y="409.9379">API Calls</text></g><!--link InventoryNode1 to InventoryMainDB--><g id="link_InventoryNode1_InventoryMainDB"><path d="M1134.7033,648.397 C1134.6631,648.8119 1134.6238,649.2284 1134.5857,649.6464 C1134.5094,650.4824 1134.4373,651.3244 1134.3699,652.1718 C1134.235,653.8667 1134.1187,655.5836 1134.0237,657.3181 C1132.505,685.0706 1136.475,717.3531 1158,736.8781 C1178.91,755.8481 1640.7,732.3781 1666,744.8781 C1713.34,768.2881 1743.2981,818.8613 1758.5381,850.2313 " fill="none" id="InventoryNode1-to-InventoryMainDB" style="stroke:#000000;stroke-width:1.0;stroke-dasharray:7.0,7.0;"/><polygon fill="#000000" points="1761.16,855.6281,1760.8251,845.7849,1758.9751,851.1307,1753.6293,849.2808,1761.16,855.6281" style="stroke:#000000;stroke-width:1.0;"/><text fill="#000000" font-family="Verdana" font-size="13" lengthAdjust="spacing" textLength="114" x="1159" y="733.9479">PostgreSQL/5433</text></g><!--link InventoryNode2 to InventoryMainDB--><g id="link_InventoryNode2_InventoryMainDB"><path d="M1400.0871,648.0254 C1400.5261,651.3665 1401.0466,654.8089 1401.6625,658.3169 C1406.59,686.3806 1417.63,718.6431 1442,736.8781 C1461.94,751.7981 1643.79,733.6181 1666,744.8781 C1712.97,768.6881 1742.9412,818.8444 1758.3212,850.1044 " fill="none" id="InventoryNode2-to-InventoryMainDB" style="stroke:#000000;stroke-width:1.0;stroke-dasharray:7.0,7.0;"/><polygon fill="#000000" points="1760.97,855.4881,1760.5859,845.6467,1758.7627,851.0017,1753.4077,849.1784,1760.97,855.4881" style="stroke:#000000;stroke-width:1.0;"/><text fill="#000000" font-family="Verdana" font-size="13" lengthAdjust="spacing" textLength="114" x="1443" y="733.9479">PostgreSQL/5433</text></g><!--link InventoryNode3 to InventoryMainDB--><g id="link_InventoryNode3_InventoryMainDB"><path d="M1671.8623,648.5225 C1672.0046,648.8515 1672.1474,649.1819 1672.2908,649.5137 C1672.5776,650.1772 1672.8667,650.8461 1673.1581,651.5203 C1675.4893,656.9137 1677.9661,662.6439 1680.5572,668.6386 C1685.7394,680.628 1691.3787,693.675 1697.225,707.2006 C1720.61,761.3031 1744.9244,817.5556 1758.9094,849.9106 " fill="none" id="InventoryNode3-to-InventoryMainDB" style="stroke:#000000;stroke-width:1.0;stroke-dasharray:7.0,7.0;"/><polygon fill="#000000" points="1761.29,855.4181,1761.3909,845.5698,1759.3062,850.8285,1754.0475,848.7438,1761.29,855.4181" style="stroke:#000000;stroke-width:1.0;"/><text fill="#000000" font-family="Verdana" font-size="13" lengthAdjust="spacing" textLength="114" x="1709.46" y="733.9479">PostgreSQL/5433</text></g><!--link EcommerceNode to EcommerceMainDB--><g id="link_EcommerceNode_EcommerceMainDB"><path d="M831.6497,648.2481 C831.7431,648.4591 831.837,648.6705 831.9312,648.8822 C833.4397,652.2705 835.0614,655.7565 836.7987,659.3031 C850.6975,687.6756 872,719.9181 902,736.8781 C923.58,749.0881 1100.56,740.7381 1125,744.8781 C1263.1,768.2881 1413.0266,821.9569 1493.8666,853.3369 " fill="none" id="EcommerceNode-to-EcommerceMainDB" style="stroke:#000000;stroke-width:1.0;stroke-dasharray:7.0,7.0;"/><polygon fill="#000000" points="1499.46,855.5081,1492.5174,848.5224,1494.7989,853.6988,1489.6225,855.9802,1499.46,855.5081" style="stroke:#000000;stroke-width:1.0;"/><text fill="#000000" font-family="Verdana" font-size="13" lengthAdjust="spacing" textLength="114" x="903" y="733.9479">PostgreSQL/5450</text></g><!--link RetailNode to RetailMainDB--><g id="link_RetailNode_RetailMainDB"><path d="M1937.9634,647.9223 C1938.2023,648.2706 1938.4414,648.6204 1938.6806,648.9716 C1939.159,649.674 1939.638,650.3822 1940.1173,651.096 C1942.0343,653.9512 1943.9553,656.8961 1945.8601,659.9179 C1949.6696,665.9615 1953.414,672.3129 1956.9308,678.8705 C1963.9644,691.9856 1970.0875,705.9256 1974,719.8781 C1987.13,766.6981 1979.5454,818.4431 1972.8354,849.5431 " fill="none" id="RetailNode-to-RetailMainDB" style="stroke:#000000;stroke-width:1.0;stroke-dasharray:7.0,7.0;"/><polygon fill="#000000" points="1971.57,855.4081,1977.3782,847.4542,1972.6245,850.5206,1969.5581,845.7669,1971.57,855.4081" style="stroke:#000000;stroke-width:1.0;"/><text fill="#000000" font-family="Verdana" font-size="13" lengthAdjust="spacing" textLength="114" x="1978.71" y="733.9479">PostgreSQL/5434</text></g><!--link ReportingNode to ReportingMainDB--><g id="link_ReportingNode_ReportingMainDB"><path d="M2236.5682,647.9958 C2236.8236,648.386 2237.0784,648.778 2237.3325,649.1719 C2253.5975,674.3756 2267.26,706.8231 2258,736.8781 C2243.44,784.1481 2211.0489,825.302 2187.4889,851.302 " fill="none" id="ReportingNode-to-ReportingMainDB" style="stroke:#000000;stroke-width:1.0;stroke-dasharray:7.0,7.0;"/><polygon fill="#000000" points="2183.46,855.7481,2192.4674,851.7648,2186.8174,852.043,2186.5392,846.393,2183.46,855.7481" style="stroke:#000000;stroke-width:1.0;"/><text fill="#000000" font-family="Verdana" font-size="13" lengthAdjust="spacing" textLength="114" x="2261.79" y="733.9479">PostgreSQL/5435</text></g><!--link EcommerceNode to PrometheusNode--><g id="link_EcommerceNode_PrometheusNode"><path d="M819.3656,648.3298 C819.3596,648.5054 819.3533,648.6812 819.3467,648.8572 C819.3204,649.5612 819.2897,650.2687 819.2542,650.9791 C819.1834,652.3999 819.0939,653.8326 818.9837,655.2739 C818.7634,658.1565 818.4605,661.0735 818.06,663.9988 C817.2589,669.8494 816.0669,675.7328 814.3619,681.4394 C810.9519,692.8525 805.49,703.5581 797,711.8781 C780.61,727.9381 760.91,702.4481 746,719.8781 C741.09,725.6281 740.72,731.4781 746,736.8781 C759.36,750.5581 1075.71,732.1881 1090,744.8781 C1100.99,754.6356 1107.7213,767.6462 1111.6244,781.7178 C1113.5759,788.7536 1114.8205,796.0546 1115.5368,803.3468 C1115.7159,805.1699 1115.8619,806.9924 1115.9778,808.8101 C1115.9923,809.0373 1115.6491,803.275 1115.6626,803.5021 " fill="none" id="EcommerceNode-to-PrometheusNode" style="stroke:#000000;stroke-width:1.0;stroke-dasharray:7.0,7.0;"/><polygon fill="#000000" points="1116.0198,809.4915,1119.4769,800.2693,1115.7221,804.5003,1111.4911,800.7456,1116.0198,809.4915" style="stroke:#000000;stroke-width:1.0;"/><text fill="#000000" font-family="Verdana" font-size="13" lengthAdjust="spacing" textLength="86" x="747" y="733.9479">Metrics/9090</text></g><!--link InventoryNode1 to PrometheusNode--><g id="link_InventoryNode1_PrometheusNode"><path d="M1146.8355,648.283 C1146.8266,648.6355 1146.8166,648.9889 1146.8055,649.343 C1146.7832,650.0514 1146.7564,650.7629 1146.7247,651.4773 C1146.6612,652.906 1146.5784,654.3458 1146.4742,655.7934 C1146.2657,658.6887 1145.9717,661.6151 1145.5759,664.5455 C1144.7844,670.4063 1143.5862,676.2833 1141.8527,681.9597 C1138.3856,693.3125 1132.7775,703.8631 1124,711.8781 C1108.52,726.0181 1044.18,704.4381 1030,719.8781 C1024.89,725.4481 1025.02,731.1981 1030,736.8781 C1047.72,757.1281 1070.89,725.9481 1090,744.8781 C1100.44,755.2206 1106.8925,768.5281 1110.6878,782.715 C1112.5855,789.8084 1113.8188,797.1217 1114.5542,804.3941 C1114.738,806.2122 1114.4798,802.0419 1114.604,803.8508 " fill="none" id="InventoryNode1-to-PrometheusNode" style="stroke:#000000;stroke-width:1.0;stroke-dasharray:7.0,7.0;"/><polygon fill="#000000" points="1115.0149,809.8367,1118.3891,800.5839,1114.6725,804.8484,1110.4079,801.1318,1115.0149,809.8367" style="stroke:#000000;stroke-width:1.0;"/><text fill="#000000" font-family="Verdana" font-size="13" lengthAdjust="spacing" textLength="86" x="1031" y="733.9479">Metrics/9090</text></g><!--link InventoryNode2 to PrometheusNode--><g id="link_InventoryNode2_PrometheusNode"><path d="M1401.5958,648.0281 C1401.5859,648.3794 1401.5748,648.7316 1401.5626,649.0847 C1401.5382,649.7907 1401.5092,650.5001 1401.4756,651.2123 C1401.4082,652.6368 1401.3218,654.0728 1401.2144,655.517 C1400.9996,658.4055 1400.7009,661.3269 1400.3026,664.2546 C1399.5059,670.1099 1398.3109,675.9902 1396.5925,681.6826 C1393.1556,693.0675 1387.625,703.7006 1379,711.8781 C1368.44,721.8981 1327.46,714.3581 1314,719.8781 C1261.625,741.3831 1211.145,779.9981 1173.3825,813.6706 C1154.5012,830.5069 1138.7994,846.1075 1127.6297,857.7159 C1124.8373,860.618 1122.3281,863.2706 1120.1233,865.6306 C1119.021,866.8106 1122.0604,863.5051 1121.1129,864.5334 " fill="none" id="InventoryNode2-to-PrometheusNode" style="stroke:#000000;stroke-width:1.0;stroke-dasharray:7.0,7.0;"/><polygon fill="#000000" points="1117.0471,868.9458,1126.0874,865.0377,1120.4353,865.2688,1120.2042,859.6167,1117.0471,868.9458" style="stroke:#000000;stroke-width:1.0;"/><text fill="#000000" font-family="Verdana" font-size="13" lengthAdjust="spacing" textLength="86" x="1315" y="733.9479">Metrics/9090</text></g><!--link InventoryNode3 to PrometheusNode--><g id="link_InventoryNode3_PrometheusNode"><path d="M1655.2625,648.3841 C1655.253,648.5584 1655.2433,648.7329 1655.2334,648.9076 C1655.2135,649.257 1655.1925,649.6073 1655.1705,649.9584 C1655.0824,651.3629 1654.9772,652.7807 1654.8532,654.2089 C1654.6051,657.0653 1654.2819,659.9629 1653.87,662.8773 C1653.0462,668.7062 1651.868,674.6025 1650.2284,680.3706 C1646.9494,691.9069 1641.825,702.9306 1634,711.8781 C1626.32,720.6681 1620.04,716.1181 1609,719.8781 C1587.97,727.0481 1583.73,732.2981 1562,736.8781 C1511.44,747.5481 1496.41,733.4881 1446,744.8781 C1368.7,762.3581 1285.855,794.8531 1221.6488,823.3481 C1189.5456,837.5956 1162.1022,850.8431 1142.3414,860.7137 C1132.461,865.649 1124.5013,869.7401 1118.8401,872.6899 C1118.4863,872.8743 1118.1414,873.0542 1117.8057,873.2295 C1117.6378,873.3172 1122.7891,870.6235 1122.6258,870.7089 " fill="none" id="InventoryNode3-to-PrometheusNode" style="stroke:#000000;stroke-width:1.0;stroke-dasharray:7.0,7.0;"/><polygon fill="#000000" points="1117.3088,873.4892,1127.1378,872.8634,1121.7396,871.1723,1123.4308,865.7742,1117.3088,873.4892" style="stroke:#000000;stroke-width:1.0;"/><text fill="#000000" font-family="Verdana" font-size="13" lengthAdjust="spacing" textLength="86" x="1610" y="733.9479">Metrics/9090</text></g><!--link RetailNode to PrometheusNode--><g id="link_RetailNode_PrometheusNode"><path d="M1905.2569,648.1109 C1905.2329,648.457 1905.208,648.8041 1905.182,649.152 C1905.0783,650.5438 1904.9589,651.9502 1904.8224,653.3682 C1904.5492,656.2042 1904.2075,659.0869 1903.7854,661.9931 C1902.9413,667.8057 1901.7759,673.7126 1900.1963,679.5297 C1897.0369,691.1637 1892.22,702.4381 1885,711.8781 C1869.18,732.5681 1857.35,730.9281 1832,736.8781 C1748.48,756.5081 1530.11,727.9781 1446,744.8781 C1368.3,760.4931 1285.4475,792.9581 1221.3375,821.9044 C1189.2825,836.3775 1161.9131,849.9709 1142.2163,860.1386 C1132.3678,865.2224 1124.4375,869.4498 1118.7987,872.5025 C1118.4462,872.6933 1118.1028,872.8795 1117.7683,873.061 C1117.6011,873.1518 1122.7078,870.376 1122.5451,870.4645 " fill="none" id="RetailNode-to-PrometheusNode" style="stroke:#000000;stroke-width:1.0;stroke-dasharray:7.0,7.0;"/><polygon fill="#000000" points="1117.2735,873.3298,1127.0911,872.5462,1121.6665,870.942,1123.2707,865.5174,1117.2735,873.3298" style="stroke:#000000;stroke-width:1.0;"/><text fill="#000000" font-family="Verdana" font-size="13" lengthAdjust="spacing" textLength="86" x="1878.64" y="733.9479">Metrics/9090</text></g><!--link ReportingNode to PrometheusNode--><g id="link_ReportingNode_PrometheusNode"><path d="M2203.3363,647.9007 C2203.3011,648.5962 2203.2618,649.2955 2203.2181,649.9981 C2203.1309,651.4032 2203.0264,652.8217 2202.903,654.2504 C2202.6563,657.1079 2202.334,660.0063 2201.9227,662.9213 C2201.1001,668.7512 2199.9214,674.647 2198.2791,680.4128 C2194.9944,691.9444 2189.855,702.9556 2182,711.8781 C2178.92,715.3781 2106.6,736.1481 2102,736.8781 C2030.01,748.3181 1517.53,730.8281 1446,744.8781 C1368.235,760.1631 1285.3825,792.6231 1221.2888,821.6494 C1189.2419,836.1625 1161.8847,849.8172 1142.198,860.0373 C1132.3546,865.1474 1124.4289,869.3988 1118.7933,872.4696 C1118.4411,872.6616 1118.0978,872.8489 1117.7636,873.0315 C1117.5965,873.1228 1122.6953,870.3331 1122.5327,870.422 " fill="none" id="ReportingNode-to-PrometheusNode" style="stroke:#000000;stroke-width:1.0;stroke-dasharray:7.0,7.0;"/><polygon fill="#000000" points="1117.269,873.3019,1127.0845,872.4912,1121.6554,870.902,1123.2446,865.473,1117.269,873.3019" style="stroke:#000000;stroke-width:1.0;"/><text fill="#000000" font-family="Verdana" font-size="13" lengthAdjust="spacing" textLength="86" x="2161.23" y="733.9479">Metrics/9090</text></g><!--link PrometheusNode to GrafanaNode--><g id="link_PrometheusNode_GrafanaNode"><path d="M1117.3576,879.8525 C1117.6728,879.8552 1117.9962,879.8585 1118.3277,879.8622 C1123.6318,879.9219 1131.0077,880.1107 1139.9561,880.6108 C1157.8528,881.6109 1182.0394,883.8562 1208.5213,888.8044 C1261.485,898.7006 1323.63,919.4081 1363,962.5881 C1366.1225,966.0131 1368.7673,969.8405 1371.0044,973.9225 C1371.5637,974.943 1372.0975,975.9794 1372.6069,977.0295 C1372.7342,977.292 1372.8601,977.5553 1372.9844,977.8195 C1373.0465,977.9516 1370.5852,972.6402 1370.6467,972.7726 " fill="none" id="PrometheusNode-to-GrafanaNode" style="stroke:#000000;stroke-width:1.0;stroke-dasharray:7.0,7.0;"/><polygon fill="#000000" points="1373.1697,978.2164,1373.0143,968.3687,1371.0672,973.6799,1365.756,971.7328,1373.1697,978.2164" style="stroke:#000000;stroke-width:1.0;"/><text fill="#000000" font-family="Verdana" font-size="13" lengthAdjust="spacing" textLength="109" x="1353.97" y="951.6579">Dashboard/3000</text></g><!--link WebClients to Kong--><g id="link_WebClients_Kong"><path d="M545,176.9581 C545,191.6331 545,209.2537 545,227.4814 C545,236.5952 545,245.8608 545,254.9858 C545,259.5483 545,264.0757 545,268.5314 C545,270.7592 545,272.9692 545,275.1566 C545,275.7034 545,270.2489 545,270.7929 " fill="none" id="WebClients-to-Kong" style="stroke:#000000;stroke-width:1.0;stroke-dasharray:7.0,7.0;"/><polygon fill="#000000" points="545,276.7929,549,267.7929,545,271.7929,541,267.7929,545,276.7929" style="stroke:#000000;stroke-width:1.0;"/><text fill="#000000" font-family="Verdana" font-size="13" lengthAdjust="spacing" textLength="73" x="546" y="249.9279">HTTPS/443</text></g><!--link AdminPanel to Kong--><g id="link_AdminPanel_Kong"><path d="M655.68,176.9381 C648.6,199.8681 637.96,229.0781 624,252.8581 C610.78,275.3681 591.8325,297.6581 575.8075,314.6594 C567.795,323.16 560.5131,330.3384 555.0431,335.5611 C554.3594,336.2139 558.0654,332.7158 557.4404,333.3062 " fill="none" id="AdminPanel-to-Kong" style="stroke:#000000;stroke-width:1.0;stroke-dasharray:7.0,7.0;"/><polygon fill="#000000" points="553.0789,337.4267,562.368,334.1537,556.7135,333.993,556.8741,328.3384,553.0789,337.4267" style="stroke:#000000;stroke-width:1.0;"/><text fill="#000000" font-family="Verdana" font-size="13" lengthAdjust="spacing" textLength="73" x="632.83" y="249.9279">HTTPS/443</text></g><!--link GMN65 to Kong--><g id="link_GMN65_Kong"><path d="M448.23,174.7581 C484.27,206.7281 531.67,249.9681 537,260.8581 C538.9988,264.9356 540.6308,269.2573 541.9556,273.7043 C542.1212,274.2602 542.282,274.818 542.4381,275.3776 C542.5162,275.6574 542.593,275.9376 542.6688,276.2182 C542.7066,276.3585 542.7442,276.4989 542.7815,276.6394 " fill="none" id="GMN65-Kong" style="stroke:#000000;stroke-width:1.0;stroke-dasharray:7.0,7.0;"/></g><!--link GMN68 to PrometheusNode--><g id="link_GMN68_PrometheusNode"><path d="M782.11,849.9781 C805.78,813.2681 852.36,751.8681 911.5,728.3781 C944.75,715.1781 1039.25,715.1781 1072.5,728.3781 C1102.985,740.4881 1112.7025,775.2381 1114.5238,808.2994 C1114.5522,808.8159 1114.5787,809.3321 1114.6034,809.8478 " fill="none" id="GMN68-PrometheusNode" style="stroke:#000000;stroke-width:1.0;stroke-dasharray:7.0,7.0;"/></g><!--SRC=[dLVDRkCs4BxhATWSkebJht_a05qV2jXniGsQRDquQ2zxeINQ8LOcLPBAmYZoG7uElrY752LIb9mcoS48Xz_7-UFCK3-eHx8ZACymPL6agCe8Ml2as16ciAASeSdb2FNHNmL1oyUzfFyK98eOJmaw-vspBVgC5VcEzsS8IsG4_qO8_h1GT8CJPL7NN90QeXS1w9RZ5CrnXbb2X07UpWF8YeWdce1rL2RyYOXIPRqAqFTW5hgbEweesngabXY1GPgVoXZKxrVwV57pR7_7dVLS1UEE9eBBqaQ9hhD2Akr96OqIycl2TpiYm8VAboyWDyRLMrfYIKs777csl6boPdbk2C_EirBX3Nk2D7AnhnK6TdL1ZGKZew4MQjd8upHDSzpAj5e2fergrdFztylAnstbutSg7xzPUTnM7hzJUHmeR-NddYXCi_PjAEKdhuAbLIhBvSbBS4zoBdGLTEcnMo-egiXEcvKuXNKDBB32QonRroojv5x0bboghI2hFs-RSRk3HhIO1pHt-GDQlT59iu4AEANq1A5ojyMn6vO6BjU5pna5mpNfH_J7MhS0lAOPLVjczIy5tn7ejeLq2N2oandmQ3f_jZiwQPM69kkEA44Je81bU5igip8hQfT3uqpTvJe8hTlrMU0DPjYvP0Kd_Qa82omVrnoBr6TrEpFBY53e3lQtrdqZiOAs8-umxKKBQttGEVo0lX3rdOjlAE6CaKGFF1cPYVNnuoz1LvwYtnuUbeEVXyEXWmGjqc569p3ZLs3YRepN5jp-sD_tozb1OkreNPk-fu7r3KFAcmx7k58ON4tYE0hSUGSfVYKfQYQWaP9kqjKmygBaWdP2nIHgngmHnHESArtw7v1Nzdv4snO7DJwjochmQVXfs9M1Dn36RoN4ho040Vm_S1Y_b_5HiAqPVikOkiOmY7MbcM3VC9WcVVkwGZh41QE9UPzsHDmKn5HFB7IDiqo67dNiXqwq856IyIBL0mmiOKHLlHqQ51Vex6-oXg578T3ID2XOswMFcgKxoj0ICvALRKolpL8t8yVnJT15l1fC9d7aqDtxC8_WpQjuZlZ6x4RUgngSYxGtzhaUDTx7qQo0Z31LXPIm5Ed3oY47m8nib3wrbTjwq5ppB2jhu2lp-xN-ZlZA7kZEF7efF8qNypDxgdw-appZUmrQvIIHKQ-toe-7X6wiAHA1ciNn02XgpkhreZxgzVnFZrvlYaQ8CgdqrmCwzzn4bwZnPN5Xo8rNcsR7DLkYSv-GeXmB4ykI2N4IW06Q3BGcZpWf66XV9K1TPwGapA7Z6XzIw1770p4qrqzGUZoaLCkD8dl13TFr5qDnhu3BgbuCxFvua0GN6WEVRT-8W4piSlWGgIQRGItXUXlLUdZrzKWmOP8NFo7TQFkwSQBpnLnUkDp_1m00]--></g></svg>