<?xml version="1.0" encoding="us-ascii" standalone="no"?><svg xmlns="http://www.w3.org/2000/svg" xmlns:xlink="http://www.w3.org/1999/xlink" contentStyleType="text/css" height="931px" preserveAspectRatio="none" style="width:1659px;height:931px;background:#FFFFFF;" version="1.1" viewBox="0 0 1659 931" width="1659px" zoomAndPan="magnify"><defs/><g><text fill="#000000" font-family="Verdana" font-size="22" font-weight="bold" lengthAdjust="spacing" textLength="398" x="626.06" y="37.1182">Documentation 4+1 - Scenarios</text><!--cluster Domaine E-commerce--><g id="cluster_Domaine E-commerce"><path d="M137.5,58.7373 L311.5,58.7373 A3.75,3.75 0 0 1 314,61.2373 L321,81.752 L1019.16,81.752 A2.5,2.5 0 0 1 1021.66,84.252 L1021.66,160.2373 A2.5,2.5 0 0 1 1019.16,162.7373 L137.5,162.7373 A2.5,2.5 0 0 1 135,160.2373 L135,61.2373 A2.5,2.5 0 0 1 137.5,58.7373 " fill="#FFFFFF" style="stroke:#000000;stroke-width:1.0;"/><line style="stroke:#000000;stroke-width:1.0;" x1="135" x2="321" y1="81.752" y2="81.752"/><text fill="#000000" font-family="Verdana" font-size="14" font-weight="bold" lengthAdjust="spacing" textLength="173" x="139" y="74.8125">Domaine E-commerce</text></g><!--cluster Domaine Inventaire--><g id="cluster_Domaine Inventaire"><path d="M827.94,543.7373 L985.94,543.7373 A3.75,3.75 0 0 1 988.44,546.2373 L995.44,566.752 L1649.62,566.752 A2.5,2.5 0 0 1 1652.12,569.252 L1652.12,645.2373 A2.5,2.5 0 0 1 1649.62,647.7373 L827.94,647.7373 A2.5,2.5 0 0 1 825.44,645.2373 L825.44,546.2373 A2.5,2.5 0 0 1 827.94,543.7373 " fill="#FFFFFF" style="stroke:#000000;stroke-width:1.0;"/><line style="stroke:#000000;stroke-width:1.0;" x1="825.44" x2="995.44" y1="566.752" y2="566.752"/><text fill="#000000" font-family="Verdana" font-size="14" font-weight="bold" lengthAdjust="spacing" textLength="157" x="829.44" y="559.8125">Domaine Inventaire</text></g><!--cluster Domaine Retail--><g id="cluster_Domaine Retail"><path d="M438.97,673.7373 L559.97,673.7373 A3.75,3.75 0 0 1 562.47,676.2373 L569.47,696.752 L1358.37,696.752 A2.5,2.5 0 0 1 1360.87,699.252 L1360.87,775.2373 A2.5,2.5 0 0 1 1358.37,777.7373 L438.97,777.7373 A2.5,2.5 0 0 1 436.47,775.2373 L436.47,676.2373 A2.5,2.5 0 0 1 438.97,673.7373 " fill="#FFFFFF" style="stroke:#000000;stroke-width:1.0;"/><line style="stroke:#000000;stroke-width:1.0;" x1="436.47" x2="569.47" y1="696.752" y2="696.752"/><text fill="#000000" font-family="Verdana" font-size="14" font-weight="bold" lengthAdjust="spacing" textLength="120" x="440.47" y="689.8125">Domaine Retail</text></g><!--cluster Domaine Reporting--><g id="cluster_Domaine Reporting"><path d="M434.82,414.7373 L588.82,414.7373 A3.75,3.75 0 0 1 591.32,417.2373 L598.32,437.752 L1028.01,437.752 A2.5,2.5 0 0 1 1030.51,440.252 L1030.51,516.2373 A2.5,2.5 0 0 1 1028.01,518.7373 L434.82,518.7373 A2.5,2.5 0 0 1 432.32,516.2373 L432.32,417.2373 A2.5,2.5 0 0 1 434.82,414.7373 " fill="#FFFFFF" style="stroke:#000000;stroke-width:1.0;"/><line style="stroke:#000000;stroke-width:1.0;" x1="432.32" x2="598.32" y1="437.752" y2="437.752"/><text fill="#000000" font-family="Verdana" font-size="14" font-weight="bold" lengthAdjust="spacing" textLength="153" x="436.32" y="430.8125">Domaine Reporting</text></g><g id="elem_UC01"><ellipse cx="240.658" cy="114.7389" fill="#FFFFFF" rx="89.658" ry="20.3316" style="stroke:#000000;stroke-width:1.0;"/><text fill="#000000" font-family="Verdana" font-size="14" lengthAdjust="spacing" textLength="139" x="171.158" y="118.3068">Consulter catalogue</text></g><g id="elem_UC02"><ellipse cx="529.8448" cy="113.7343" fill="#FFFFFF" rx="82.7848" ry="18.957" style="stroke:#000000;stroke-width:1.0;"/><text fill="#000000" font-family="Verdana" font-size="14" lengthAdjust="spacing" textLength="123" x="468.3448" y="117.3021">Ajouter au panier</text></g><g id="elem_UC03"><ellipse cx="915.574" cy="126.7361" fill="#FFFFFF" rx="90.094" ry="20.4188" style="stroke:#000000;stroke-width:1.0;"/><text fill="#000000" font-family="Verdana" font-size="14" lengthAdjust="spacing" textLength="140" x="845.574" y="130.304">Finaliser commande</text></g><g id="elem_UC04"><ellipse cx="915.5674" cy="596.7328" fill="#FFFFFF" rx="74.1274" ry="17.2255" style="stroke:#000000;stroke-width:1.0;"/><text fill="#000000" font-family="Verdana" font-size="14" lengthAdjust="spacing" textLength="102" x="864.053" y="600.4385">Gerer produits</text></g><g id="elem_UC05"><ellipse cx="1264.1942" cy="596.7381" fill="#FFFFFF" rx="70.3042" ry="16.4608" style="stroke:#000000;stroke-width:1.0;"/><text fill="#000000" font-family="Verdana" font-size="14" lengthAdjust="spacing" textLength="92" x="1215.6231" y="600.9346">Ajuster stock</text></g><g id="elem_UC06"><ellipse cx="1549.4963" cy="605.7326" fill="#FFFFFF" rx="86.6263" ry="19.7253" style="stroke:#000000;stroke-width:1.0;"/><text fill="#000000" font-family="Verdana" font-size="14" lengthAdjust="spacing" textLength="132" x="1483.4963" y="609.3004">Gerer alertes stock</text></g><g id="elem_UC07"><ellipse cx="915.5722" cy="728.7398" fill="#FFFFFF" rx="82.3622" ry="18.8724" style="stroke:#000000;stroke-width:1.0;"/><text fill="#000000" font-family="Verdana" font-size="14" lengthAdjust="spacing" textLength="122" x="854.5722" y="732.3076">Enregistrer vente</text></g><g id="elem_UC08"><ellipse cx="1264.1912" cy="735.7335" fill="#FFFFFF" rx="80.6812" ry="18.5362" style="stroke:#000000;stroke-width:1.0;"/><text fill="#000000" font-family="Verdana" font-size="14" lengthAdjust="spacing" textLength="118" x="1205.1912" y="739.3014">Traiter paiement</text></g><g id="elem_UC09"><ellipse cx="529.8364" cy="727.7406" fill="#FFFFFF" rx="77.3664" ry="17.8733" style="stroke:#000000;stroke-width:1.0;"/><text fill="#000000" font-family="Verdana" font-size="14" lengthAdjust="spacing" textLength="110" x="474.8364" y="731.3085">Gerer magasins</text></g><g id="elem_UC10"><ellipse cx="529.8398" cy="483.7413" fill="#FFFFFF" rx="81.5198" ry="18.704" style="stroke:#000000;stroke-width:1.0;"/><text fill="#000000" font-family="Verdana" font-size="14" lengthAdjust="spacing" textLength="120" x="469.8398" y="487.3091">Generer rapports</text></g><g id="elem_UC11"><ellipse cx="915.5746" cy="472.7362" fill="#FFFFFF" rx="98.9446" ry="22.1889" style="stroke:#000000;stroke-width:1.0;"/><text fill="#000000" font-family="Verdana" font-size="14" lengthAdjust="spacing" textLength="160" x="835.5746" y="476.3041">Analyser performances</text></g><!--entity WebClient--><g id="elem_WebClient"><ellipse cx="49.5" cy="157.7273" fill="#FFFFFF" rx="8" ry="8" style="stroke:#000000;stroke-width:1.0;"/><path d="M49.5,165.7273 L49.5,192.7273 M36.5,173.7273 L62.5,173.7273 M49.5,192.7273 L36.5,207.7273 M49.5,192.7273 L62.5,207.7273 " fill="none" style="stroke:#000000;stroke-width:1.0;"/><text fill="#000000" font-family="Verdana" font-size="14" lengthAdjust="spacing" textLength="77" x="11" y="223.8025">Client Web</text></g><!--entity StoreEmployee--><g id="elem_StoreEmployee"><ellipse cx="529.84" cy="802.7273" fill="#FFFFFF" rx="8" ry="8" style="stroke:#000000;stroke-width:1.0;"/><path d="M529.84,810.7273 L529.84,837.7273 M516.84,818.7273 L542.84,818.7273 M529.84,837.7273 L516.84,852.7273 M529.84,837.7273 L542.84,852.7273 " fill="none" style="stroke:#000000;stroke-width:1.0;"/><text fill="#000000" font-family="Verdana" font-size="14" lengthAdjust="spacing" textLength="122" x="468.84" y="868.8025">Employe Magasin</text></g><!--entity Admin--><g id="elem_Admin"><ellipse cx="240.66" cy="570.7273" fill="#FFFFFF" rx="8" ry="8" style="stroke:#000000;stroke-width:1.0;"/><path d="M240.66,578.7273 L240.66,605.7273 M227.66,586.7273 L253.66,586.7273 M240.66,605.7273 L227.66,620.7273 M240.66,605.7273 L253.66,620.7273 " fill="none" style="stroke:#000000;stroke-width:1.0;"/><text fill="#000000" font-family="Verdana" font-size="14" lengthAdjust="spacing" textLength="106" x="187.66" y="636.8025">Administrateur</text></g><!--link UC01 to UC02--><g id="link_UC01_UC02"><path d="M330.56,114.4273 C367.62,114.2973 404.4,114.1671 440.71,114.0471 " fill="none" id="UC01-to-UC02" style="stroke:#000000;stroke-width:1.0;stroke-dasharray:7.0,7.0;"/><polygon fill="#000000" points="446.71,114.0273,437.6968,110.0571,441.71,114.0438,437.7233,118.057,446.71,114.0273" style="stroke:#000000;stroke-width:1.0;"/><text fill="#000000" font-family="Verdana" font-size="13" lengthAdjust="spacing" textLength="54" x="361.32" y="111.2171">includes</text></g><!--link UC02 to UC03--><g id="link_UC02_UC03"><path d="M612.22,116.4973 C674.92,118.6173 755.5035,121.3435 819.9435,123.5335 " fill="none" id="UC02-to-UC03" style="stroke:#000000;stroke-width:1.0;stroke-dasharray:7.0,7.0;"/><polygon fill="#000000" points="825.94,123.7373,817.0811,119.4339,820.9429,123.5675,816.8093,127.4293,825.94,123.7373" style="stroke:#000000;stroke-width:1.0;"/><text fill="#000000" font-family="Verdana" font-size="13" lengthAdjust="spacing" textLength="54" x="687.62" y="114.6471">includes</text></g><!--link UC04 to UC05--><g id="link_UC04_UC05"><path d="M990.08,596.7373 C1050.19,596.7373 1128.61,596.7373 1187.63,596.7373 " fill="none" id="UC04-to-UC05" style="stroke:#000000;stroke-width:1.0;stroke-dasharray:7.0,7.0;"/><polygon fill="#000000" points="1193.63,596.7373,1184.63,592.7373,1188.63,596.7373,1184.63,600.7373,1193.63,596.7373" style="stroke:#000000;stroke-width:1.0;"/><text fill="#000000" font-family="Verdana" font-size="13" lengthAdjust="spacing" textLength="54" x="1073.01" y="593.8071">includes</text></g><!--link UC05 to UC06--><g id="link_UC05_UC06"><path d="M1334.13,598.9273 C1373.03,600.1673 1415.973,601.527 1457.263,602.837 " fill="none" id="UC05-to-UC06" style="stroke:#000000;stroke-width:1.0;stroke-dasharray:7.0,7.0;"/><polygon fill="#000000" points="1463.26,603.0273,1454.3914,598.7439,1458.2625,602.8688,1454.1377,606.7399,1463.26,603.0273" style="stroke:#000000;stroke-width:1.0;"/><text fill="#000000" font-family="Verdana" font-size="13" lengthAdjust="spacing" textLength="54" x="1377.87" y="597.4971">includes</text></g><!--link UC07 to UC08--><g id="link_UC07_UC08"><path d="M997.83,730.3773 C1053.76,731.5073 1121.7112,732.8754 1177.3312,734.0054 " fill="none" id="UC07-to-UC08" style="stroke:#000000;stroke-width:1.0;stroke-dasharray:7.0,7.0;"/><polygon fill="#000000" points="1183.33,734.1273,1174.4131,729.9453,1178.331,734.0257,1174.2506,737.9437,1183.33,734.1273" style="stroke:#000000;stroke-width:1.0;"/><text fill="#000000" font-family="Verdana" font-size="13" lengthAdjust="spacing" textLength="54" x="1073.01" y="728.4771">includes</text></g><!--link UC09 to UC07--><g id="link_UC09_UC07"><path d="M607.57,727.9373 C672.85,728.1073 760.36,728.3311 827,728.5111 " fill="none" id="UC09-to-UC07" style="stroke:#000000;stroke-width:1.0;stroke-dasharray:7.0,7.0;"/><polygon fill="#000000" points="833,728.5273,824.0108,724.503,828,728.5138,823.9892,732.503,833,728.5273" style="stroke:#000000;stroke-width:1.0;"/><text fill="#000000" font-family="Verdana" font-size="13" lengthAdjust="spacing" textLength="54" x="687.62" y="725.1071">includes</text></g><!--link UC10 to UC11--><g id="link_UC10_UC11"><path d="M610.81,481.4473 C670.78,479.7273 747.1525,477.5392 810.9925,475.7092 " fill="none" id="UC10-to-UC11" style="stroke:#000000;stroke-width:1.0;stroke-dasharray:7.0,7.0;"/><polygon fill="#000000" points="816.99,475.5373,807.8791,471.7968,811.9921,475.6806,808.1083,479.7935,816.99,475.5373" style="stroke:#000000;stroke-width:1.0;"/><text fill="#000000" font-family="Verdana" font-size="13" lengthAdjust="spacing" textLength="54" x="687.62" y="473.6771">includes</text></g><!--link WebClient to UC01--><g id="link_WebClient_UC01"><path d="M88.32,173.1373 C118.73,161.4073 155.9523,147.0374 188.2923,134.5574 " fill="none" id="WebClient-to-UC01" style="stroke:#000000;stroke-width:1.0;"/><polygon fill="#000000" points="193.89,132.3973,184.0534,131.9057,189.2253,134.1974,186.9336,139.3693,193.89,132.3973" style="stroke:#000000;stroke-width:1.0;"/></g><!--link WebClient to UC02--><g id="link_WebClient_UC02"><path d="M88.18,183.8673 C142.03,178.1373 244.03,166.5873 330.32,152.7373 C376.79,145.2773 423.1256,136.1583 462.3356,128.0083 " fill="none" id="WebClient-to-UC02" style="stroke:#000000;stroke-width:1.0;"/><polygon fill="#000000" points="468.21,126.7873,458.5843,124.7026,463.3146,127.8048,460.2124,132.5351,468.21,126.7873" style="stroke:#000000;stroke-width:1.0;"/></g><!--link WebClient to UC03--><g id="link_WebClient_UC03"><path d="M88.1,189.0373 C141.85,190.5873 243.73,192.4473 330.32,187.7373 C512.85,177.7973 720.2612,152.6593 831.7812,137.9993 " fill="none" id="WebClient-to-UC03" style="stroke:#000000;stroke-width:1.0;"/><polygon fill="#000000" points="837.73,137.2173,828.2854,134.4244,832.7726,137.869,829.3281,142.3562,837.73,137.2173" style="stroke:#000000;stroke-width:1.0;"/></g><!--link StoreEmployee to UC07--><g id="link_StoreEmployee_UC07"><path d="M591.22,816.3773 C665.4,796.2673 784.339,764.0372 855.239,744.8172 " fill="none" id="StoreEmployee-to-UC07" style="stroke:#000000;stroke-width:1.0;"/><polygon fill="#000000" points="861.03,743.2473,851.2969,741.7414,856.2042,744.5555,853.3901,749.4627,861.03,743.2473" style="stroke:#000000;stroke-width:1.0;"/></g><!--link StoreEmployee to UC08--><g id="link_StoreEmployee_UC08"><path d="M591.15,828.0773 C643.05,823.8273 719.89,816.9673 786.62,808.7373 C934.49,790.4873 1101.214,763.3277 1192.694,747.8577 " fill="none" id="StoreEmployee-to-UC08" style="stroke:#000000;stroke-width:1.0;"/><polygon fill="#000000" points="1198.61,746.8573,1189.069,744.414,1193.68,747.691,1190.403,752.302,1198.61,746.8573" style="stroke:#000000;stroke-width:1.0;"/></g><!--link Admin to UC04--><g id="link_Admin_UC04"><path d="M293.98,606.2773 C391.2,615.6873 606.19,632.4473 786.62,617.7373 C810.18,615.8173 830.0206,612.9759 852.2106,609.0759 " fill="none" id="Admin-to-UC04" style="stroke:#000000;stroke-width:1.0;"/><polygon fill="#000000" points="858.12,608.0373,848.5635,605.6556,853.1955,608.9028,849.9483,613.5348,858.12,608.0373" style="stroke:#000000;stroke-width:1.0;"/></g><!--link Admin to UC05--><g id="link_Admin_UC05"><path d="M263.62,561.5473 C284.81,526.4473 319.6,475.3373 360.32,440.7373 C507.81,315.3973 595.51,321.0673 786.62,351.7373 C903,370.4173 933.5,381.1973 1038.51,434.7373 C1121.84,477.2273 1203.7092,544.7339 1240.4192,576.6039 " fill="none" id="Admin-to-UC05" style="stroke:#000000;stroke-width:1.0;"/><polygon fill="#000000" points="1244.95,580.5373,1240.7761,571.6166,1241.1743,577.2594,1235.5315,577.6577,1244.95,580.5373" style="stroke:#000000;stroke-width:1.0;"/></g><!--link Admin to UC06--><g id="link_Admin_UC06"><path d="M255.17,640.1373 C287.56,726.4873 378.32,924.7373 528.84,924.7373 C528.84,924.7373 528.84,924.7373 1265.19,924.7373 C1425.92,924.7373 1515.7627,701.1956 1540.0027,631.3556 " fill="none" id="Admin-to-UC06" style="stroke:#000000;stroke-width:1.0;"/><polygon fill="#000000" points="1541.97,625.6873,1535.2401,632.8782,1540.3305,630.4109,1542.7978,635.5013,1541.97,625.6873" style="stroke:#000000;stroke-width:1.0;"/></g><!--link Admin to UC09--><g id="link_Admin_UC09"><path d="M293.96,631.5773 C314.33,642.9973 338.08,655.6273 360.32,665.7373 C401.04,684.2573 443.3741,699.5816 477.7141,711.1516 " fill="none" id="Admin-to-UC09" style="stroke:#000000;stroke-width:1.0;"/><polygon fill="#000000" points="483.4,713.0673,476.1482,706.4031,478.6617,711.4709,473.5939,713.9843,483.4,713.0673" style="stroke:#000000;stroke-width:1.0;"/></g><!--link Admin to UC10--><g id="link_Admin_UC10"><path d="M294,579.4173 C349.97,556.6073 431.9832,523.1904 482.8832,502.4604 " fill="none" id="Admin-to-UC10" style="stroke:#000000;stroke-width:1.0;"/><polygon fill="#000000" points="488.44,500.1973,478.596,499.8874,483.8093,502.0832,481.6135,507.2965,488.44,500.1973" style="stroke:#000000;stroke-width:1.0;"/></g><!--link Admin to UC11--><g id="link_Admin_UC11"><path d="M273.52,561.5173 C306.66,524.1273 362.31,470.2773 424.32,447.7373 C571.29,394.3173 753.6436,428.8155 848.4336,453.4955 " fill="none" id="Admin-to-UC11" style="stroke:#000000;stroke-width:1.0;"/><polygon fill="#000000" points="854.24,455.0073,846.5382,448.8687,849.4013,453.7475,844.5225,456.6106,854.24,455.0073" style="stroke:#000000;stroke-width:1.0;"/></g><!--link UC03 to UC05--><g id="link_UC03_UC05"><path d="M953.87,145.6573 C1005.53,173.6173 1098.66,230.6273 1153.51,303.7373 C1221.64,394.5373 1250.5477,526.4657 1259.2677,574.0157 " fill="none" id="UC03-to-UC05" style="stroke:#000000;stroke-width:1.0;stroke-dasharray:7.0,7.0;"/><polygon fill="#000000" points="1260.35,579.9173,1262.661,570.3434,1259.4481,574.9993,1254.7922,571.7864,1260.35,579.9173" style="stroke:#000000;stroke-width:1.0;"/><text fill="#000000" font-family="Verdana" font-size="13" lengthAdjust="spacing" textLength="105" x="1047.51" y="201.9971">Reduction stock</text></g><!--link UC07 to UC05--><g id="link_UC07_UC05"><path d="M959.42,712.4173 C1027.97,686.3073 1155.5728,637.7226 1220.3828,613.0426 " fill="none" id="UC07-to-UC05" style="stroke:#000000;stroke-width:1.0;stroke-dasharray:7.0,7.0;"/><polygon fill="#000000" points="1225.99,610.9073,1216.1557,610.372,1221.3173,612.6867,1219.0027,617.8483,1225.99,610.9073" style="stroke:#000000;stroke-width:1.0;"/><text fill="#000000" font-family="Verdana" font-size="13" lengthAdjust="spacing" textLength="105" x="1047.51" y="636.5071">Reduction stock</text></g><!--link UC10 to UC03--><g id="link_UC10_UC03"><path d="M561.98,466.0873 C612.69,436.4173 714.67,372.7673 786.62,301.7373 C836.71,252.2973 878.7982,186.8494 899.5182,152.3894 " fill="none" id="UC10-to-UC03" style="stroke:#000000;stroke-width:1.0;stroke-dasharray:7.0,7.0;"/><polygon fill="#000000" points="902.61,147.2473,894.5443,152.8992,900.0335,151.5324,901.4003,157.0216,902.61,147.2473" style="stroke:#000000;stroke-width:1.0;"/><text fill="#000000" font-family="Verdana" font-size="13" lengthAdjust="spacing" textLength="142" x="643.62" y="298.8071">Donnees commandes</text></g><!--link UC10 to UC07--><g id="link_UC10_UC07"><path d="M549.14,502.1173 C570.45,522.9173 607.24,557.1273 642.62,581.7373 C721.49,636.5873 817.5809,684.0743 871.5209,709.1943 " fill="none" id="UC10-to-UC07" style="stroke:#000000;stroke-width:1.0;stroke-dasharray:7.0,7.0;"/><polygon fill="#000000" points="876.96,711.7273,870.49,704.3017,872.4274,709.6165,867.1127,711.5539,876.96,711.7273" style="stroke:#000000;stroke-width:1.0;"/><text fill="#000000" font-family="Verdana" font-size="13" lengthAdjust="spacing" textLength="106" x="661.62" y="578.8071">Donnees ventes</text></g><!--link UC10 to UC04--><g id="link_UC10_UC04"><path d="M581.4,498.6273 C656.39,520.7073 790.2643,560.1325 862.6343,581.4425 " fill="none" id="UC10-to-UC04" style="stroke:#000000;stroke-width:1.0;stroke-dasharray:7.0,7.0;"/><polygon fill="#000000" points="868.39,583.1373,860.8864,576.758,863.5936,581.725,858.6266,584.4322,868.39,583.1373" style="stroke:#000000;stroke-width:1.0;"/><text fill="#000000" font-family="Verdana" font-size="13" lengthAdjust="spacing" textLength="116" x="656.62" y="514.1971">Donnees produits</text></g><!--SRC=[XLHDRzim3BthLt2vv32uYFFH93iK2D9is66NTiNEdCowMct9qyUmOjX_dwHOhfLaQ0u9ABwGxqcFV6UVg2Ne6XIICIjiGt2hk6j9MhH2ILY-Bw60UquIjL26iOOUBLW5MjHF5YgXYGSWOrFOSKjE6-Yqa5nqw7upv5PfcEmRuIl2D_e-0JJXztYIyeUsQzGBmHUiqGWPGVS-Gts24d1NjK8AOpM6LX4NZqBxWUI807IeeLAjrqUiG_wCDS7azdW0XuAhjYNDQG9_6FYFCyJHUCXUIUCQIneuMcnKxIXsUzZFoXov-w5SmA7ppQGWdN3p7FTHI6o42HLzKvJLK70HWV4hb8UhgvluV_W0NaVZAZ8fEK_9nJZvbvrh-on_XKVqxtEcxHDfpwBJgdB2ciHYUIhBcI3BMCMV4sPrgH0sf2sP77cTQLecsgiBcbOfUVsMfZloWfepFGUfgGwcy6I2wE5YrpdkgqOH97KeA3WymJQNLBL7AmxNiyq4hHFdpGL1svHSloseKzeAMLzu8nbfQEm29D4ePoUlv3tr4ZpLaNvKsjkAqu0jnvJBMS-gB4zOJJsD9awx0Un7kF2sDr1DdHNUivWc_7MEsJ33K1Gtnx4uEvgV7or2cPDnPzce9-Jwyl4cRffi3R0O9i0o3rTvU9s7sopqjvk5PNuvmbjB5_qsCS2riEAdyvSOvt7ayCaTLIwknNuesDWo_qCCBnI7stj4IWfj-crXSinwZ8ckFm4inu1XsFD5-Ih1V_u1]--></g></svg>