<?xml version="1.0" encoding="us-ascii" standalone="no"?><svg xmlns="http://www.w3.org/2000/svg" xmlns:xlink="http://www.w3.org/1999/xlink" contentStyleType="text/css" height="1468px" preserveAspectRatio="none" style="width:1171px;height:1468px;background:#FFFFFF;" version="1.1" viewBox="0 0 1171 1468" width="1171px" zoomAndPan="magnify"><defs/><g><text fill="#000000" font-family="Verdana" font-size="22" font-weight="bold" lengthAdjust="spacing" textLength="457" x="355.75" y="37.1182">Documentation 4+1 - Vue Processus</text><rect fill="#FFFFFF" height="514.5884" style="stroke:#000000;stroke-width:1.0;" width="10" x="513.5" y="236.1499"/><rect fill="#FFFFFF" height="89.3979" style="stroke:#000000;stroke-width:1.0;" width="10" x="661" y="409.9458"/><rect fill="#FFFFFF" height="95.3979" style="stroke:#000000;stroke-width:1.0;" width="10" x="661" y="558.9424"/><rect fill="#FFFFFF" height="89.3979" style="stroke:#000000;stroke-width:1.0;" width="10" x="661" y="1027.9321"/><rect fill="#FFFFFF" height="95.3979" style="stroke:#000000;stroke-width:1.0;" width="10" x="661" y="1176.9287"/><rect fill="#FFFFFF" height="514.5884" style="stroke:#000000;stroke-width:1.0;" width="10" x="788" y="854.1362"/><rect fill="#FFFFFF" height="321.7925" style="stroke:#000000;stroke-width:1.0;" width="952.5" x="135" y="340.5479"/><rect fill="#FFFFFF" height="321.7925" style="stroke:#000000;stroke-width:1.0;" width="952.5" x="135" y="958.5342"/><line style="stroke:#000000;stroke-width:1.0;" x1="51" x2="51" y1="130.752" y2="1386.7246"/><line style="stroke:#000000;stroke-width:1.0;" x1="212" x2="212" y1="130.752" y2="1386.7246"/><line style="stroke:#000000;stroke-width:1.0;" x1="518.5" x2="518.5" y1="130.752" y2="1386.7246"/><line style="stroke:#000000;stroke-width:1.0;" x1="665.5" x2="665.5" y1="130.752" y2="1386.7246"/><line style="stroke:#000000;stroke-width:1.0;" x1="792.5" x2="792.5" y1="130.752" y2="1386.7246"/><line style="stroke:#000000;stroke-width:1.0;" x1="910.5" x2="910.5" y1="130.752" y2="1386.7246"/><line style="stroke:#000000;stroke-width:1.0;" x1="1027.5" x2="1027.5" y1="130.752" y2="1386.7246"/><line style="stroke:#000000;stroke-width:1.0;" x1="1123.5" x2="1123.5" y1="130.752" y2="1386.7246"/><text fill="#000000" font-family="Verdana" font-size="14" lengthAdjust="spacing" textLength="77" x="10" y="127.8125">Client Web</text><ellipse cx="51.5" cy="61.7373" fill="#FFFFFF" rx="8" ry="8" style="stroke:#000000;stroke-width:1.0;"/><path d="M51.5,69.7373 L51.5,96.7373 M38.5,77.7373 L64.5,77.7373 M51.5,96.7373 L38.5,111.7373 M51.5,96.7373 L64.5,111.7373 " fill="none" style="stroke:#000000;stroke-width:1.0;"/><text fill="#000000" font-family="Verdana" font-size="14" lengthAdjust="spacing" textLength="77" x="10" y="1399.7998">Client Web</text><ellipse cx="51.5" cy="1411.7393" fill="#FFFFFF" rx="8" ry="8" style="stroke:#000000;stroke-width:1.0;"/><path d="M51.5,1419.7393 L51.5,1446.7393 M38.5,1427.7393 L64.5,1427.7393 M51.5,1446.7393 L38.5,1461.7393 M51.5,1446.7393 L64.5,1461.7393 " fill="none" style="stroke:#000000;stroke-width:1.0;"/><rect fill="#FFFFFF" height="31.0146" rx="2.5" ry="2.5" style="stroke:#000000;stroke-width:1.0;" width="115" x="155" y="98.7373"/><text fill="#000000" font-family="Verdana" font-size="14" lengthAdjust="spacing" textLength="101" x="162" y="119.8125">Kong Gateway</text><rect fill="#FFFFFF" height="31.0146" rx="2.5" ry="2.5" style="stroke:#000000;stroke-width:1.0;" width="115" x="155" y="1385.7246"/><text fill="#000000" font-family="Verdana" font-size="14" lengthAdjust="spacing" textLength="101" x="162" y="1406.7998">Kong Gateway</text><rect fill="#FFFFFF" height="31.0146" rx="2.5" ry="2.5" style="stroke:#000000;stroke-width:1.0;" width="124" x="456.5" y="98.7373"/><text fill="#000000" font-family="Verdana" font-size="14" lengthAdjust="spacing" textLength="110" x="463.5" y="119.8125">Ecommerce API</text><rect fill="#FFFFFF" height="31.0146" rx="2.5" ry="2.5" style="stroke:#000000;stroke-width:1.0;" width="124" x="456.5" y="1385.7246"/><text fill="#000000" font-family="Verdana" font-size="14" lengthAdjust="spacing" textLength="110" x="463.5" y="1406.7998">Ecommerce API</text><rect fill="#FFFFFF" height="31.0146" rx="2.5" ry="2.5" style="stroke:#000000;stroke-width:1.0;" width="111" x="610.5" y="98.7373"/><text fill="#000000" font-family="Verdana" font-size="14" lengthAdjust="spacing" textLength="97" x="617.5" y="119.8125">Inventory API</text><rect fill="#FFFFFF" height="31.0146" rx="2.5" ry="2.5" style="stroke:#000000;stroke-width:1.0;" width="111" x="610.5" y="1385.7246"/><text fill="#000000" font-family="Verdana" font-size="14" lengthAdjust="spacing" textLength="97" x="617.5" y="1406.7998">Inventory API</text><rect fill="#FFFFFF" height="31.0146" rx="2.5" ry="2.5" style="stroke:#000000;stroke-width:1.0;" width="83" x="751.5" y="98.7373"/><text fill="#000000" font-family="Verdana" font-size="14" lengthAdjust="spacing" textLength="69" x="758.5" y="119.8125">Retail API</text><rect fill="#FFFFFF" height="31.0146" rx="2.5" ry="2.5" style="stroke:#000000;stroke-width:1.0;" width="83" x="751.5" y="1385.7246"/><text fill="#000000" font-family="Verdana" font-size="14" lengthAdjust="spacing" textLength="69" x="758.5" y="1406.7998">Retail API</text><text fill="#000000" font-family="Verdana" font-size="14" lengthAdjust="spacing" textLength="107" x="854.5" y="127.8125">Ecommerce DB</text><path d="M893,77.7373 C893,67.7373 911,67.7373 911,67.7373 C911,67.7373 929,67.7373 929,77.7373 L929,103.7373 C929,113.7373 911,113.7373 911,113.7373 C911,113.7373 893,113.7373 893,103.7373 L893,77.7373 " fill="#FFFFFF" style="stroke:#000000;stroke-width:1.5;"/><path d="M893,77.7373 C893,87.7373 911,87.7373 911,87.7373 C911,87.7373 929,87.7373 929,77.7373 " fill="none" style="stroke:#000000;stroke-width:1.5;"/><text fill="#000000" font-family="Verdana" font-size="14" lengthAdjust="spacing" textLength="107" x="854.5" y="1399.7998">Ecommerce DB</text><path d="M893,1412.7393 C893,1402.7393 911,1402.7393 911,1402.7393 C911,1402.7393 929,1402.7393 929,1412.7393 L929,1438.7393 C929,1448.7393 911,1448.7393 911,1448.7393 C911,1448.7393 893,1448.7393 893,1438.7393 L893,1412.7393 " fill="#FFFFFF" style="stroke:#000000;stroke-width:1.5;"/><path d="M893,1412.7393 C893,1422.7393 911,1422.7393 911,1422.7393 C911,1422.7393 929,1422.7393 929,1412.7393 " fill="none" style="stroke:#000000;stroke-width:1.5;"/><text fill="#000000" font-family="Verdana" font-size="14" lengthAdjust="spacing" textLength="94" x="977.5" y="127.8125">Inventory DB</text><path d="M1009.5,77.7373 C1009.5,67.7373 1027.5,67.7373 1027.5,67.7373 C1027.5,67.7373 1045.5,67.7373 1045.5,77.7373 L1045.5,103.7373 C1045.5,113.7373 1027.5,113.7373 1027.5,113.7373 C1027.5,113.7373 1009.5,113.7373 1009.5,103.7373 L1009.5,77.7373 " fill="#FFFFFF" style="stroke:#000000;stroke-width:1.5;"/><path d="M1009.5,77.7373 C1009.5,87.7373 1027.5,87.7373 1027.5,87.7373 C1027.5,87.7373 1045.5,87.7373 1045.5,77.7373 " fill="none" style="stroke:#000000;stroke-width:1.5;"/><text fill="#000000" font-family="Verdana" font-size="14" lengthAdjust="spacing" textLength="94" x="977.5" y="1399.7998">Inventory DB</text><path d="M1009.5,1412.7393 C1009.5,1402.7393 1027.5,1402.7393 1027.5,1402.7393 C1027.5,1402.7393 1045.5,1402.7393 1045.5,1412.7393 L1045.5,1438.7393 C1045.5,1448.7393 1027.5,1448.7393 1027.5,1448.7393 C1027.5,1448.7393 1009.5,1448.7393 1009.5,1438.7393 L1009.5,1412.7393 " fill="#FFFFFF" style="stroke:#000000;stroke-width:1.5;"/><path d="M1009.5,1412.7393 C1009.5,1422.7393 1027.5,1422.7393 1027.5,1422.7393 C1027.5,1422.7393 1045.5,1422.7393 1045.5,1412.7393 " fill="none" style="stroke:#000000;stroke-width:1.5;"/><text fill="#000000" font-family="Verdana" font-size="14" lengthAdjust="spacing" textLength="66" x="1087.5" y="127.8125">Retail DB</text><path d="M1105.5,77.7373 C1105.5,67.7373 1123.5,67.7373 1123.5,67.7373 C1123.5,67.7373 1141.5,67.7373 1141.5,77.7373 L1141.5,103.7373 C1141.5,113.7373 1123.5,113.7373 1123.5,113.7373 C1123.5,113.7373 1105.5,113.7373 1105.5,103.7373 L1105.5,77.7373 " fill="#FFFFFF" style="stroke:#000000;stroke-width:1.5;"/><path d="M1105.5,77.7373 C1105.5,87.7373 1123.5,87.7373 1123.5,87.7373 C1123.5,87.7373 1141.5,87.7373 1141.5,77.7373 " fill="none" style="stroke:#000000;stroke-width:1.5;"/><text fill="#000000" font-family="Verdana" font-size="14" lengthAdjust="spacing" textLength="66" x="1087.5" y="1399.7998">Retail DB</text><path d="M1105.5,1412.7393 C1105.5,1402.7393 1123.5,1402.7393 1123.5,1402.7393 C1123.5,1402.7393 1141.5,1402.7393 1141.5,1412.7393 L1141.5,1438.7393 C1141.5,1448.7393 1123.5,1448.7393 1123.5,1448.7393 C1123.5,1448.7393 1105.5,1448.7393 1105.5,1438.7393 L1105.5,1412.7393 " fill="#FFFFFF" style="stroke:#000000;stroke-width:1.5;"/><path d="M1105.5,1412.7393 C1105.5,1422.7393 1123.5,1422.7393 1123.5,1422.7393 C1123.5,1422.7393 1141.5,1422.7393 1141.5,1412.7393 " fill="none" style="stroke:#000000;stroke-width:1.5;"/><rect fill="#FFFFFF" height="514.5884" style="stroke:#000000;stroke-width:1.0;" width="10" x="513.5" y="236.1499"/><rect fill="#FFFFFF" height="89.3979" style="stroke:#000000;stroke-width:1.0;" width="10" x="661" y="409.9458"/><rect fill="#FFFFFF" height="95.3979" style="stroke:#000000;stroke-width:1.0;" width="10" x="661" y="558.9424"/><rect fill="#FFFFFF" height="89.3979" style="stroke:#000000;stroke-width:1.0;" width="10" x="661" y="1027.9321"/><rect fill="#FFFFFF" height="95.3979" style="stroke:#000000;stroke-width:1.0;" width="10" x="661" y="1176.9287"/><rect fill="#FFFFFF" height="514.5884" style="stroke:#000000;stroke-width:1.0;" width="10" x="788" y="854.1362"/><rect fill="#FFFFFF" height="3" style="stroke:#FFFFFF;stroke-width:1.0;" width="1159.5" x="5" y="161.6516"/><line style="stroke:#000000;stroke-width:0.5;" x1="5" x2="1164.5" y1="161.6516" y2="161.6516"/><line style="stroke:#000000;stroke-width:0.5;" x1="5" x2="1164.5" y1="164.6516" y2="164.6516"/><rect fill="#FFFFFF" height="23.7993" style="stroke:#000000;stroke-width:1.0;" width="326" x="421.75" y="150.752"/><text fill="#000000" font-family="Verdana" font-size="13" font-weight="bold" lengthAdjust="spacing" textLength="308" x="427.75" y="167.8218">Scenario 1: Commande Client E-commerce</text><polygon fill="#000000" points="200.5,202.3506,210.5,206.3506,200.5,210.3506,204.5,206.3506" style="stroke:#000000;stroke-width:1.0;"/><line style="stroke:#000000;stroke-width:1.0;" x1="51.5" x2="206.5" y1="206.3506" y2="206.3506"/><text fill="#000000" font-family="Verdana" font-size="13" lengthAdjust="spacing" textLength="137" x="58.5" y="201.6211">POST /api/v1/orders</text><polygon fill="#000000" points="501.5,232.1499,511.5,236.1499,501.5,240.1499,505.5,236.1499" style="stroke:#000000;stroke-width:1.0;"/><line style="stroke:#000000;stroke-width:1.0;" x1="212.5" x2="507.5" y1="236.1499" y2="236.1499"/><text fill="#000000" font-family="Verdana" font-size="13" lengthAdjust="spacing" textLength="137" x="219.5" y="231.4204">POST /api/v1/orders</text><polygon fill="#000000" points="899,261.9492,909,265.9492,899,269.9492,903,265.9492" style="stroke:#000000;stroke-width:1.0;"/><line style="stroke:#000000;stroke-width:1.0;" x1="523.5" x2="905" y1="265.9492" y2="265.9492"/><text fill="#000000" font-family="Verdana" font-size="13" lengthAdjust="spacing" textLength="143" x="530.5" y="261.2197">BEGIN TRANSACTION</text><polygon fill="#000000" points="899,291.7485,909,295.7485,899,299.7485,903,295.7485" style="stroke:#000000;stroke-width:1.0;"/><line style="stroke:#000000;stroke-width:1.0;" x1="523.5" x2="905" y1="295.7485" y2="295.7485"/><text fill="#000000" font-family="Verdana" font-size="13" lengthAdjust="spacing" textLength="135" x="530.5" y="291.019">INSERT INTO orders</text><polygon fill="#000000" points="899,321.5479,909,325.5479,899,329.5479,903,325.5479" style="stroke:#000000;stroke-width:1.0;"/><line style="stroke:#000000;stroke-width:1.0;" x1="523.5" x2="905" y1="325.5479" y2="325.5479"/><text fill="#000000" font-family="Verdana" font-size="13" lengthAdjust="spacing" textLength="167" x="530.5" y="320.8184">INSERT INTO order_lines</text><path d="M135,340.5479 L211,340.5479 L211,348.3472 L201,358.3472 L135,358.3472 L135,340.5479 " fill="#FFFFFF" style="stroke:#000000;stroke-width:1.0;"/><rect fill="none" height="321.7925" style="stroke:#000000;stroke-width:1.0;" width="952.5" x="135" y="340.5479"/><text fill="#000000" font-family="Verdana" font-size="13" font-weight="bold" lengthAdjust="spacing" textLength="31" x="150" y="354.6177">loop</text><text fill="#000000" font-family="Verdana" font-size="11" font-weight="bold" lengthAdjust="spacing" textLength="139" x="226" y="353.6069">[Pour chaque produit]</text><polygon fill="#000000" points="223.5,376.1465,213.5,380.1465,223.5,384.1465,219.5,380.1465" style="stroke:#000000;stroke-width:1.0;"/><line style="stroke:#000000;stroke-width:1.0;" x1="217.5" x2="512.5" y1="380.1465" y2="380.1465"/><text fill="#000000" font-family="Verdana" font-size="13" lengthAdjust="spacing" textLength="176" x="229.5" y="375.417">GET /api/v1/products/{id}</text><polygon fill="#000000" points="649,405.9458,659,409.9458,649,413.9458,653,409.9458" style="stroke:#000000;stroke-width:1.0;"/><line style="stroke:#000000;stroke-width:1.0;" x1="212.5" x2="655" y1="409.9458" y2="409.9458"/><text fill="#000000" font-family="Verdana" font-size="13" lengthAdjust="spacing" textLength="176" x="219.5" y="405.2163">GET /api/v1/products/{id}</text><polygon fill="#000000" points="1015.5,435.7451,1025.5,439.7451,1015.5,443.7451,1019.5,439.7451" style="stroke:#000000;stroke-width:1.0;"/><line style="stroke:#000000;stroke-width:1.0;" x1="671" x2="1021.5" y1="439.7451" y2="439.7451"/><text fill="#000000" font-family="Verdana" font-size="13" lengthAdjust="spacing" textLength="104" x="678" y="435.0156">SELECT product</text><polygon fill="#000000" points="223.5,465.5444,213.5,469.5444,223.5,473.5444,219.5,469.5444" style="stroke:#000000;stroke-width:1.0;"/><line style="stroke:#000000;stroke-width:1.0;stroke-dasharray:2.0,2.0;" x1="217.5" x2="660" y1="469.5444" y2="469.5444"/><text fill="#000000" font-family="Verdana" font-size="13" lengthAdjust="spacing" textLength="99" x="229.5" y="464.8149">Product details</text><polygon fill="#000000" points="501.5,495.3438,511.5,499.3438,501.5,503.3438,505.5,499.3438" style="stroke:#000000;stroke-width:1.0;"/><line style="stroke:#000000;stroke-width:1.0;stroke-dasharray:2.0,2.0;" x1="212.5" x2="507.5" y1="499.3438" y2="499.3438"/><text fill="#000000" font-family="Verdana" font-size="13" lengthAdjust="spacing" textLength="99" x="219.5" y="494.6143">Product details</text><polygon fill="#000000" points="223.5,525.1431,213.5,529.1431,223.5,533.1431,219.5,529.1431" style="stroke:#000000;stroke-width:1.0;"/><line style="stroke:#000000;stroke-width:1.0;" x1="217.5" x2="512.5" y1="529.1431" y2="529.1431"/><text fill="#000000" font-family="Verdana" font-size="13" lengthAdjust="spacing" textLength="277" x="229.5" y="524.4136">POST /api/v1/products/{id}/reduce-stock</text><polygon fill="#000000" points="649,554.9424,659,558.9424,649,562.9424,653,558.9424" style="stroke:#000000;stroke-width:1.0;"/><line style="stroke:#000000;stroke-width:1.0;" x1="212.5" x2="655" y1="558.9424" y2="558.9424"/><text fill="#000000" font-family="Verdana" font-size="13" lengthAdjust="spacing" textLength="277" x="219.5" y="554.2129">POST /api/v1/products/{id}/reduce-stock</text><path d="M574,571.9424 L574,596.9424 L758,596.9424 L758,581.9424 L748,571.9424 L574,571.9424 " fill="#FFFFFF" style="stroke:#000000;stroke-width:1.0;"/><path d="M748,571.9424 L748,581.9424 L758,581.9424 L748,571.9424 " fill="#FFFFFF" style="stroke:#000000;stroke-width:1.0;"/><text fill="#000000" font-family="Verdana" font-size="13" lengthAdjust="spacing" textLength="163" x="580" y="590.0122">Gestion interne du stock</text><polygon fill="#000000" points="223.5,620.541,213.5,624.541,223.5,628.541,219.5,624.541" style="stroke:#000000;stroke-width:1.0;"/><line style="stroke:#000000;stroke-width:1.0;stroke-dasharray:2.0,2.0;" x1="217.5" x2="660" y1="624.541" y2="624.541"/><text fill="#000000" font-family="Verdana" font-size="13" lengthAdjust="spacing" textLength="180" x="229.5" y="619.8115">Stock reduced successfully</text><polygon fill="#000000" points="501.5,650.3403,511.5,654.3403,501.5,658.3403,505.5,654.3403" style="stroke:#000000;stroke-width:1.0;"/><line style="stroke:#000000;stroke-width:1.0;stroke-dasharray:2.0,2.0;" x1="212.5" x2="507.5" y1="654.3403" y2="654.3403"/><text fill="#000000" font-family="Verdana" font-size="13" lengthAdjust="spacing" textLength="180" x="219.5" y="649.6108">Stock reduced successfully</text><polygon fill="#000000" points="899,687.1396,909,691.1396,899,695.1396,903,691.1396" style="stroke:#000000;stroke-width:1.0;"/><line style="stroke:#000000;stroke-width:1.0;" x1="523.5" x2="905" y1="691.1396" y2="691.1396"/><text fill="#000000" font-family="Verdana" font-size="13" lengthAdjust="spacing" textLength="155" x="530.5" y="686.4102">COMMIT TRANSACTION</text><polygon fill="#000000" points="223.5,716.939,213.5,720.939,223.5,724.939,219.5,720.939" style="stroke:#000000;stroke-width:1.0;"/><line style="stroke:#000000;stroke-width:1.0;stroke-dasharray:2.0,2.0;" x1="217.5" x2="512.5" y1="720.939" y2="720.939"/><text fill="#000000" font-family="Verdana" font-size="13" lengthAdjust="spacing" textLength="93" x="229.5" y="716.2095">Order created</text><polygon fill="#000000" points="62.5,746.7383,52.5,750.7383,62.5,754.7383,58.5,750.7383" style="stroke:#000000;stroke-width:1.0;"/><line style="stroke:#000000;stroke-width:1.0;stroke-dasharray:2.0,2.0;" x1="56.5" x2="211.5" y1="750.7383" y2="750.7383"/><text fill="#000000" font-family="Verdana" font-size="13" lengthAdjust="spacing" textLength="81" x="68.5" y="746.0088">201 Created</text><rect fill="#FFFFFF" height="3" style="stroke:#FFFFFF;stroke-width:1.0;" width="1159.5" x="5" y="779.6379"/><line style="stroke:#000000;stroke-width:0.5;" x1="5" x2="1164.5" y1="779.6379" y2="779.6379"/><line style="stroke:#000000;stroke-width:0.5;" x1="5" x2="1164.5" y1="782.6379" y2="782.6379"/><rect fill="#FFFFFF" height="23.7993" style="stroke:#000000;stroke-width:1.0;" width="232" x="468.75" y="768.7383"/><text fill="#000000" font-family="Verdana" font-size="13" font-weight="bold" lengthAdjust="spacing" textLength="214" x="474.75" y="785.8081">Scenario 2: Vente en Magasin</text><polygon fill="#000000" points="200.5,820.3369,210.5,824.3369,200.5,828.3369,204.5,824.3369" style="stroke:#000000;stroke-width:1.0;"/><line style="stroke:#000000;stroke-width:1.0;" x1="51.5" x2="206.5" y1="824.3369" y2="824.3369"/><text fill="#000000" font-family="Verdana" font-size="13" lengthAdjust="spacing" textLength="128" x="58.5" y="819.6074">POST /api/v1/sales</text><polygon fill="#000000" points="776,850.1362,786,854.1362,776,858.1362,780,854.1362" style="stroke:#000000;stroke-width:1.0;"/><line style="stroke:#000000;stroke-width:1.0;" x1="212.5" x2="782" y1="854.1362" y2="854.1362"/><text fill="#000000" font-family="Verdana" font-size="13" lengthAdjust="spacing" textLength="128" x="219.5" y="849.4067">POST /api/v1/sales</text><polygon fill="#000000" points="1111.5,879.9355,1121.5,883.9355,1111.5,887.9355,1115.5,883.9355" style="stroke:#000000;stroke-width:1.0;"/><line style="stroke:#000000;stroke-width:1.0;" x1="798" x2="1117.5" y1="883.9355" y2="883.9355"/><text fill="#000000" font-family="Verdana" font-size="13" lengthAdjust="spacing" textLength="143" x="805" y="879.2061">BEGIN TRANSACTION</text><polygon fill="#000000" points="1111.5,909.7349,1121.5,913.7349,1111.5,917.7349,1115.5,913.7349" style="stroke:#000000;stroke-width:1.0;"/><line style="stroke:#000000;stroke-width:1.0;" x1="798" x2="1117.5" y1="913.7349" y2="913.7349"/><text fill="#000000" font-family="Verdana" font-size="13" lengthAdjust="spacing" textLength="126" x="805" y="909.0054">INSERT INTO sales</text><polygon fill="#000000" points="1111.5,939.5342,1121.5,943.5342,1111.5,947.5342,1115.5,943.5342" style="stroke:#000000;stroke-width:1.0;"/><line style="stroke:#000000;stroke-width:1.0;" x1="798" x2="1117.5" y1="943.5342" y2="943.5342"/><text fill="#000000" font-family="Verdana" font-size="13" lengthAdjust="spacing" textLength="158" x="805" y="938.8047">INSERT INTO sale_lines</text><path d="M135,958.5342 L211,958.5342 L211,966.3335 L201,976.3335 L135,976.3335 L135,958.5342 " fill="#FFFFFF" style="stroke:#000000;stroke-width:1.0;"/><rect fill="none" height="321.7925" style="stroke:#000000;stroke-width:1.0;" width="952.5" x="135" y="958.5342"/><text fill="#000000" font-family="Verdana" font-size="13" font-weight="bold" lengthAdjust="spacing" textLength="31" x="150" y="972.604">loop</text><text fill="#000000" font-family="Verdana" font-size="11" font-weight="bold" lengthAdjust="spacing" textLength="139" x="226" y="971.5933">[Pour chaque produit]</text><polygon fill="#000000" points="223.5,994.1328,213.5,998.1328,223.5,1002.1328,219.5,998.1328" style="stroke:#000000;stroke-width:1.0;"/><line style="stroke:#000000;stroke-width:1.0;" x1="217.5" x2="787" y1="998.1328" y2="998.1328"/><text fill="#000000" font-family="Verdana" font-size="13" lengthAdjust="spacing" textLength="176" x="229.5" y="993.4033">GET /api/v1/products/{id}</text><polygon fill="#000000" points="649,1023.9321,659,1027.9321,649,1031.9321,653,1027.9321" style="stroke:#000000;stroke-width:1.0;"/><line style="stroke:#000000;stroke-width:1.0;" x1="212.5" x2="655" y1="1027.9321" y2="1027.9321"/><text fill="#000000" font-family="Verdana" font-size="13" lengthAdjust="spacing" textLength="176" x="219.5" y="1023.2026">GET /api/v1/products/{id}</text><polygon fill="#000000" points="1015.5,1053.7314,1025.5,1057.7314,1015.5,1061.7314,1019.5,1057.7314" style="stroke:#000000;stroke-width:1.0;"/><line style="stroke:#000000;stroke-width:1.0;" x1="671" x2="1021.5" y1="1057.7314" y2="1057.7314"/><text fill="#000000" font-family="Verdana" font-size="13" lengthAdjust="spacing" textLength="104" x="678" y="1053.002">SELECT product</text><polygon fill="#000000" points="223.5,1083.5308,213.5,1087.5308,223.5,1091.5308,219.5,1087.5308" style="stroke:#000000;stroke-width:1.0;"/><line style="stroke:#000000;stroke-width:1.0;stroke-dasharray:2.0,2.0;" x1="217.5" x2="660" y1="1087.5308" y2="1087.5308"/><text fill="#000000" font-family="Verdana" font-size="13" lengthAdjust="spacing" textLength="99" x="229.5" y="1082.8013">Product details</text><polygon fill="#000000" points="776,1113.3301,786,1117.3301,776,1121.3301,780,1117.3301" style="stroke:#000000;stroke-width:1.0;"/><line style="stroke:#000000;stroke-width:1.0;stroke-dasharray:2.0,2.0;" x1="212.5" x2="782" y1="1117.3301" y2="1117.3301"/><text fill="#000000" font-family="Verdana" font-size="13" lengthAdjust="spacing" textLength="99" x="219.5" y="1112.6006">Product details</text><polygon fill="#000000" points="223.5,1143.1294,213.5,1147.1294,223.5,1151.1294,219.5,1147.1294" style="stroke:#000000;stroke-width:1.0;"/><line style="stroke:#000000;stroke-width:1.0;" x1="217.5" x2="787" y1="1147.1294" y2="1147.1294"/><text fill="#000000" font-family="Verdana" font-size="13" lengthAdjust="spacing" textLength="277" x="229.5" y="1142.3999">POST /api/v1/products/{id}/reduce-stock</text><polygon fill="#000000" points="649,1172.9287,659,1176.9287,649,1180.9287,653,1176.9287" style="stroke:#000000;stroke-width:1.0;"/><line style="stroke:#000000;stroke-width:1.0;" x1="212.5" x2="655" y1="1176.9287" y2="1176.9287"/><text fill="#000000" font-family="Verdana" font-size="13" lengthAdjust="spacing" textLength="277" x="219.5" y="1172.1992">POST /api/v1/products/{id}/reduce-stock</text><path d="M574,1189.9287 L574,1214.9287 L758,1214.9287 L758,1199.9287 L748,1189.9287 L574,1189.9287 " fill="#FFFFFF" style="stroke:#000000;stroke-width:1.0;"/><path d="M748,1189.9287 L748,1199.9287 L758,1199.9287 L748,1189.9287 " fill="#FFFFFF" style="stroke:#000000;stroke-width:1.0;"/><text fill="#000000" font-family="Verdana" font-size="13" lengthAdjust="spacing" textLength="163" x="580" y="1207.9985">Gestion interne du stock</text><polygon fill="#000000" points="223.5,1238.5273,213.5,1242.5273,223.5,1246.5273,219.5,1242.5273" style="stroke:#000000;stroke-width:1.0;"/><line style="stroke:#000000;stroke-width:1.0;stroke-dasharray:2.0,2.0;" x1="217.5" x2="660" y1="1242.5273" y2="1242.5273"/><text fill="#000000" font-family="Verdana" font-size="13" lengthAdjust="spacing" textLength="180" x="229.5" y="1237.7979">Stock reduced successfully</text><polygon fill="#000000" points="776,1268.3267,786,1272.3267,776,1276.3267,780,1272.3267" style="stroke:#000000;stroke-width:1.0;"/><line style="stroke:#000000;stroke-width:1.0;stroke-dasharray:2.0,2.0;" x1="212.5" x2="782" y1="1272.3267" y2="1272.3267"/><text fill="#000000" font-family="Verdana" font-size="13" lengthAdjust="spacing" textLength="180" x="219.5" y="1267.5972">Stock reduced successfully</text><polygon fill="#000000" points="1111.5,1305.126,1121.5,1309.126,1111.5,1313.126,1115.5,1309.126" style="stroke:#000000;stroke-width:1.0;"/><line style="stroke:#000000;stroke-width:1.0;" x1="798" x2="1117.5" y1="1309.126" y2="1309.126"/><text fill="#000000" font-family="Verdana" font-size="13" lengthAdjust="spacing" textLength="155" x="805" y="1304.3965">COMMIT TRANSACTION</text><polygon fill="#000000" points="223.5,1334.9253,213.5,1338.9253,223.5,1342.9253,219.5,1338.9253" style="stroke:#000000;stroke-width:1.0;"/><line style="stroke:#000000;stroke-width:1.0;stroke-dasharray:2.0,2.0;" x1="217.5" x2="787" y1="1338.9253" y2="1338.9253"/><text fill="#000000" font-family="Verdana" font-size="13" lengthAdjust="spacing" textLength="84" x="229.5" y="1334.1958">Sale created</text><polygon fill="#000000" points="62.5,1364.7246,52.5,1368.7246,62.5,1372.7246,58.5,1368.7246" style="stroke:#000000;stroke-width:1.0;"/><line style="stroke:#000000;stroke-width:1.0;stroke-dasharray:2.0,2.0;" x1="56.5" x2="211.5" y1="1368.7246" y2="1368.7246"/><text fill="#000000" font-family="Verdana" font-size="13" lengthAdjust="spacing" textLength="81" x="68.5" y="1363.9951">201 Created</text><!--SRC=[vLHDYzim4BthLqnpBI7DqbCWXOrZWcdpGMnsZqKhJtT57ScLv9HG-jyhsufi1tkpwR7rnMZqvaDlviqxyu87X3oZN11YkCaGbf8L1nI66Yu5V7m_XJ4y50Wx9HbgNMX2A3DImIZ8kCN18pwDW6geZoIdod36SsglHf-bU8OLDVYJdYfGQUX2GYOF1rGCuNuNLHXlwG8ZSRJnfJfveBTqWNiqb6SULHz9IWrzeXhR6PUBRiBbeWLhyZcODtHWBfl3r2SB8FCvn0m5LLp2T0Q1JK55Yeuc2CU-YlcS46STVweOci5k6oSmeJcV7ASJgL9KcbHaMeGljnzckyEFbl8MZwHvSjj_kPZ18bn56qZszvluFaYYxUOLRBI9mtrYVyaMNB8Rm5ypBj1EJoPb3ZjPA60lz8UTh5p9jE26WFqwyMegLc7pn0hAZ9xyukdlok5CYc_EDGTFJpCzfRdfTZjO-P0u_1862RX8b-2cO_KzfDK4w5Pn5othmQKuKDKG9vs-TzuuKMWFEDP6ikz33DtYFb2PaDOaZwWwpAEkjWON1fL0I0je0lMH5fUtKETCGHUiN37VYYmx3V9tnQMNIXJfQne8jkjrb0o9m1UxBQSOc48RF2M-jbgwCxZxC8N0NRQgQAcmlHBkPl1WtH1Gm9e-Kyt5zKMWQORD7gXtJI_4PtVBZxWjvRtwfT-7Qkku3luMr9l4tWJwTvJkctApp2_P-DyqVcRkhmNUDvSzqZx3cWBjlDuiQoUiFm00]--></g></svg>